<svg xmlns="http://www.w3.org/2000/svg" version="1.1" viewBox="0.0 0.0 100.0 100.0">
 <path d="m72.785 32.961c0.082032 0.68359-0.10938 1.3555-0.54688 1.8906-0.42188 0.52344-1.0234 0.84375-1.6914 0.89844-5.457 0.47266-11.965 0.71875-18.82 0.71875-6.8555 0-13.363-0.25-18.82-0.71875-0.66406-0.058594-1.2656-0.375-1.6875-0.89844-0.43359-0.53516-0.625-1.2031-0.54297-1.8906 0.14844-1.2695 1.2227-2.1953 2.4883-2.1953 0.070313 0 0.14844 0.003906 0.22266 0.007813 5.2969 0.45703 11.641 0.69922 18.344 0.69922s13.047-0.24219 18.344-0.69922c1.3359-0.097657 2.5508 0.84375 2.7148 2.1875zm-41.402-25.57c1.9922-1.2578 4.5156-1.1875 6.4297 0.17578l0.22266 0.16016c3.0938 2.2031 7.25 2.207 10.348 0.007813 2-1.4258 4.6875-1.4219 6.6875 0 3.0938 2.2031 7.2578 2.1953 10.352-0.007813l0.21484-0.15234c1.9141-1.3672 4.4414-1.4375 6.4336-0.17969 1.3516 0.85156 1.9688 2.5195 1.4961 4.0469l-5.0742 16.438c-4.9414 0.38281-10.68 0.58984-16.762 0.58984-0.39844 0-0.78125-0.007812-1.1797-0.011719 1.4453-4.2578 1.9805-8.793 0.48828-13.039-1.2812 4.3086-2.7305 8.6016-3.2695 13.012-1.2578-0.019532-2.4805-0.050782-3.6953-0.085938-0.98828-5.0938-2.1836-10.062-3.8555-15.188-1.2031 4.7578-0.76562 10.25 1.043 15.09-2.2148-0.09375-4.3164-0.21875-6.3008-0.37109l-5.0742-16.438c-0.46875-1.5312 0.14453-3.1953 1.4961-4.0508zm-15.125 17.375c-0.45703-0.60938-0.58594-1.3828-0.35156-2.1211 0.24219-0.77734 0.82812-1.3672 1.5938-1.6211 1.0078-0.32813 2.1055 0.03125 2.7539 0.89844 1.6602 2.2227 4.6211 5.0508 9.5508 6.9883-1.1289 0.86719-1.9219 2.1641-2.1055 3.6914-0.035157 0.27734-0.023438 0.55078-0.019531 0.82422-5.8125-2.3945-9.3828-5.9375-11.422-8.6602zm-0.085937 20.844c-0.64844 0.86719-1.7578 1.2266-2.7578 0.89844-0.76953-0.25391-1.3516-0.84375-1.5938-1.6172-0.23437-0.74219-0.10156-1.5117 0.35156-2.1211 1.8711-2.4961 5.2539-5.9375 10.738-8.3555 1.8711 1.0625 3.9922 2.0312 6.4375 2.8047-0.18359 0.125-0.35938 0.25781-0.53906 0.38672-0.011719 0.003906-0.023438 0-0.039063 0.003906-6.8438 1.832-10.633 5.3672-12.602 8.0078zm66.258 44.086c-1.543 2.3828-4.1875 3.8086-7.0781 3.8086l-47.25 0.003906c-2.9062 0-5.5664-1.4375-7.1172-3.8516-3.8047-5.8828-5.8203-12.734-5.8203-19.82 0-12.625 6.6523-24.5 17.379-31.117 0.035156 0.003906 0.070312 0.015625 0.10938 0.019531 5.5391 0.48047 12.141 0.73438 19.078 0.73438s13.539-0.25391 19.078-0.73438h0.007812c9.8203 6.0469 16.289 16.359 17.316 27.66 0.77344 8.3242-1.1953 16.383-5.7031 23.301z"/>
</svg>