<svg width="800" height="800" viewBox="0 0 800 800" fill="none" xmlns="http://www.w3.org/2000/svg">
<g clip-path="url(#clip0_356_331)">
<path d="M441.909 174.067C502.766 122.944 543.431 7.77062 518.406 2.73321C485.154 -3.96264 412.948 25.3978 378.047 30.5707C328.546 36.5475 274.633 -23.1071 244.371 10.1444C219.766 37.18 262.011 135.5 328.106 178.333C130.916 275.249 -146.247 761.773 337.279 797.075C1006.32 845.922 671.307 268.509 441.909 174.067ZM499.367 557.764C497.309 576.731 487.257 593.884 472.231 605.529C456.366 617.825 436.467 623.544 416.695 625.146V646.103C416.695 651.711 414.246 657.134 410.049 660.846C404.279 665.951 395.8 667.211 388.798 663.984C381.883 660.803 377.341 653.712 377.341 646.103V623.197C373.951 622.553 370.585 621.787 367.259 620.874C348.781 615.797 331.641 605.901 319.121 591.26C312.884 583.962 307.8 575.681 304.284 566.741C303.365 564.405 302.546 562.025 301.829 559.62C301.179 557.442 300.509 555.228 300.278 552.958C299.888 549.149 300.643 545.264 302.418 541.872C306.066 534.894 313.754 530.679 321.604 531.379C329.329 532.064 336.101 537.426 338.533 544.79C339.282 547.058 339.79 549.383 340.632 551.627C341.466 553.856 342.473 556.022 343.657 558.085C345.995 562.148 348.924 565.894 352.297 569.145C359.251 575.844 368.108 580.199 377.341 582.789V504.927C359.287 500.253 340.65 494.216 325.742 482.624C318.496 476.988 312.348 469.985 308.321 461.697C304.073 452.949 302.313 443.204 302.241 433.524C302.168 423.696 304.035 413.954 308.135 405C311.975 396.615 317.504 389.087 324.283 382.847C338.777 369.506 358.031 362.065 377.343 359.332V357.619V337.576C377.343 331.97 379.792 326.545 383.99 322.833C389.761 317.73 398.236 316.468 405.241 319.695C412.153 322.878 416.697 329.967 416.697 337.576V357.619V359.213C419.271 359.537 421.836 359.925 424.389 360.388C443.353 363.819 461.9 371.65 475.768 385.322C482.338 391.798 487.716 399.514 491.498 407.929C492.554 410.276 493.478 412.678 494.278 415.127C495.024 417.411 495.773 419.762 496.129 422.145C496.697 425.949 496.118 429.88 494.489 433.361C491.154 440.491 483.673 445.032 475.802 444.695C468.069 444.358 461.063 439.322 458.294 432.094C457.469 429.944 457.057 427.668 456.215 425.524C455.366 423.353 454.267 421.283 453 419.327C450.538 415.524 447.347 412.264 443.705 409.578C435.817 403.753 426.251 400.719 416.692 399.023V473.534C428.052 476.254 439.422 479.221 450.306 483.513C466.757 489.999 482.346 499.946 491.325 515.631C489.932 513.187 488.576 510.806 491.372 515.712C494.116 520.531 492.806 518.234 491.428 515.819C498.572 528.409 500.92 543.463 499.367 557.764Z" fill="black"/>
<rect x="226" y="296" width="347" height="380" fill="black"/>
</g>
<defs>
<clipPath id="clip0_356_331">
<rect width="800" height="800" fill="white"/>
</clipPath>
</defs>
</svg>
