<svg
  xmlns="http://www.w3.org/2000/svg"
  version="1.1"
  viewBox="10.0 10.0 90.0 90.0"
>
  <path d="m52.352 13.582c-0.027343 0.12891 0.019532 0.20703 0.0625 0.32422 0.1875 0.48438 0.52344 2.582 0.44141 2.707 0.042969-0.066406-1.7969-1.3281-1.9727-1.4297-1.2617-0.72656-2.7188-1.1758-4.1719-1.2969l-0.75-0.070313 0.91016 0.44141c1.3789 0.67188 2.3789 1.3906 3.5508 2.5625 3.8945 3.8945 4.3359 9.6836 3.207 14.855-1.0664 4.8828-3.4766 9.8359-6.957 13.445-1.1016 1.1406-2.8398 2.5117-3.4805 2.75-0.17969 0.058594-0.19922 0.17969 0.37109-1.7812 0.10156-0.33203 0.48047-1.3711 0.85156-2.3008 1.3398-3.3516 1.6211-4.6328 1.6406-7.4023 0.011718-2.2617 0.058593-2.4297 0.71875-2.6523 0.69922-0.23828 1.7812 0.10938 2.6094 0.82031l0.37109 0.33203-0.28125-0.5c-0.51172-0.87891-0.82031-1.2891-1.4688-1.9219-0.85156-0.82031-1.0195-0.94922-2.2695-1.6719-1.5117-0.87891-1.8789-1.5195-1.2422-2.1602 0.76953-0.76953 2.9219-0.92187 4.6523-0.32031 0.48047 0.16016 0.87109 0.28125 0.87109 0.26172 0-0.011719-0.33203-0.28125-0.71875-0.60156-1.6523-1.2891-4.3125-2.2305-6.332-2.2422-1.2891-0.011719-1.8398-0.28906-1.8516-0.91016-0.011719-0.92187 2.2109-2.4102 4.1016-2.75l0.44922-0.078124-0.39844-0.070313c-0.64062-0.12109-2.5391-0.089844-3.3594 0.050781-1.3516 0.23828-2.332 0.73047-4.0117 2-0.51172 0.39062-1.3516 0.98047-1.8594 1.3203l-0.92188 0.62109 0.82031 0.28125c1.0195 0.33203 2.7305 1 3.0703 1.1992 0.23828 0.14062 0.21875 0.14844-0.42969 0.10938-1.2422-0.078125-2.6523 0.19922-3.2891 0.66016l-0.28906 0.19922 0.44141 0.17188c0.23047 0.10156 0.69922 0.28125 1.0312 0.41016 2.9922 1.1289 4.7617 2.9414 5.5508 5.6914 0.42188 1.4297 0.39062 3.8828-0.070312 5.7031-0.46094 1.8711-1.2891 3.6523-3.3398 7.1523-1.8008 3.0898-2.5508 4.6016-3.0312 6.1523-0.48828 1.582-0.66016 2.6797-0.66016 4.293 0 1.4922 0.10156 2.2305 0.64062 4.7422 0.46094 2.1094 0.58203 3.3398 0.46094 4.5625-0.17969 1.7305-0.91016 4.043-1.5508 4.8711-1.0742 1.3945-3.5273 1.5078-5.0938 1.8633-1.1445 0.25781-1.3555 1.6641-1.3477 2.668 0.011718 1.0195 0.12109 1.4609 0.23047 0.89844 0.089844-0.5 0.57031-1.1289 1.0898-1.4297 0.35156-0.21094 1.4805-0.66016 1.6406-0.66016 0.019531 0-0.03125 0.12891-0.12109 0.30078-0.46094 0.86719-0.125 2.0977 0.33203 2.9023l0.26172 0.44922 0.078124-0.44141c0.20313-1.1211 1.1758-2.1445 2.1289-2.7188 0.67188-0.40625 1.9141 0.71875 2.2148 1.3164 0.078126 0.16016 0.14063 0.5 0.14844 0.76172v0.48047l0.21875-0.44922c0.17188-0.37109 0.21094-0.64063 0.21875-1.5117 0-0.89062-0.23828-1.5078-0.64062-2.2695l0.91016-1.6797c1.3906-2.5898 2.9609-5.332 3.3828-5.9219l0.37891-0.51953-0.28906-0.89844c-0.53906-1.6602-0.58203-3.5703-0.12109-5.082 0.33984-1.1211 0.42969-1.0898 0.42969 0.12891 0 0.60938 0.050781 1.3906 0.10156 1.75 0.16016 0.98047 0.67188 2.5625 1.1016 3.3906l0.39062 0.73828-0.46094 0.60156c-0.57031 0.73828-1.3906 2.082-2.1406 3.5195l-0.58203 1.1016 1.9492 0.51953c1.4844 0.40625 3.1094 0.79688 4.2891 1.8477 1.1523 1.0273 1.625 2.7148 0.59766 3.9844-0.60547 0.74609-1.5664 1.1602-2.5273 1.1914-1.2422 0.042969-2.0703-0.64844-3.1914-0.96484-1.0273-0.28906-1.7188 0.26562-2.5273 0.78516-0.86328 0.55469-1.75 1.0469-2.75 1.3086l-0.48828 0.12891 1.2891 0.33203c1.9102 0.48047 3.0625 0.62109 5.1211 0.62109 1.3594 0 2.1016-0.050781 3-0.19922 4.3594-0.75 7.832-3.1016 9.5117-6.4727 2.1484-4.3086 0.11719-9.2383-3.582-11.945-0.097656-0.070312-0.55859-0.48828-0.62891-0.48828 0.375 0 0.86328 0.30078 1.1992 0.4375 0.55469 0.23047 1.0977 0.47656 1.6094 0.79297 3.5156 2.1836 5.6133 6.7305 4.3945 10.781-0.60937 2.0312-1.4297 3.3594-3.0703 5-1.2812 1.2891-2.3203 2.0312-3.9805 2.8398-1.7617 0.85938-3 1.2695-5.0703 1.6602-1.5586 0.30078-5.2031 0.37891-6.9023 0.14844-2.0312-0.28125-4.9531-1.082-6.3008-1.7305l-0.5-0.23828 0.39844 0.35937c0.64062 0.57031 2.3125 1.6602 3.4219 2.2305 7.3125 3.75 15.703 3.4414 21.387-0.78125 2.332-1.7305 4.3008-4.3594 5.0898-6.7734 0.10156-0.28906 0.21094-0.53125 0.25-0.53125 0.089843 0 0.46094 1.2188 0.60938 1.9922 0.23828 1.3008 0.03125 4.0703-0.35938 4.8398-0.28906 0.55078-0.070313 0.37109 0.48047-0.39844 1.6211-2.25 2.3906-4.9727 2.1016-7.4336-0.23047-2-0.92188-3.5-2.5-5.4531-0.53906-0.66016-1.1719-1.4375-1.25-2.3164-0.015625-0.17578-0.003906-0.35937 0.074219-0.51562 0.19922-0.39063 0.70312-0.28906 1.0586-0.26172 1.2812 0.09375 2.5938 0.44141 3.7461 1.0156 0.78125 0.39062 2.0703 1.2695 2.6406 1.8086 0.28125 0.26953 0.5 0.46094 0.48828 0.42969-0.33203-1.0117-1.1562-2.0469-1.8203-2.8633-0.71484-0.87891-1.543-1.668-2.4531-2.3438-2.1289-1.5898-4.5703-2.6016-7.1602-3.1523-1.5508-0.33984-1.9102-0.57031-1.832-1.2305 0.10937-0.99219 4.082-1.75 6.4102-1.2188 0.21094 0.039063 0.37109 0.058594 0.37109 0.050781 0-0.070312-1.1992-0.67969-1.8516-0.94922-2.4922-1.0352-5.293-1.1484-7.9297-0.70703-0.96875 0.16016-1.8984 0.42578-2.8359 0.71484-0.39062 0.12109-1.3516 0.48047-1.5312-0.10156-0.054688-0.17578 0.046875-0.42188 0.11328-0.57812 0.10547-0.25391 0.30469-0.45703 0.50781-0.64453 0.96484-0.86719 2.1367-1.3086 3.3711-1.6367 0.83203-0.21875 0.85937-0.23047 0.44922-0.23828-1.707-0.042969-3.418 0.13672-5.0859 0.49219-1.6055 0.33984-3.0625 0.94922-4.5977 1.4766-0.28906 0.10156-0.30859 0.089843-0.23047-0.058594 0.19141-0.35938 3.1992-3.3203 4.2109-4.1406 2.3906-1.9414 4.9531-3.3398 7.6523-4.1719 1.6211-0.48828 2.6406-0.64844 4.2617-0.66016h1.4609l0.37109-1.1602c0.78125-2.4805 1.2422-5.1914 1.332-7.8906 0.050782-1.6406 0.14844-2.2305 0.26172-1.6406 0.28906 1.4492 0.41016 3.082 0.41016 5.543 0 1.8477-0.16016 3.4297-0.57031 5.2305-0.019531 0.078125-0.035157 0.16406-0.019531 0.24219 0.035156 0.16797 0.20703 0.26562 0.35937 0.34766 1.4023 0.74609 2.5742 1.9141 3.3203 3.3164 0.64062 1.2031 0.96875 2.5742 0.94141 3.9375-0.019531 0.96484 0.066407 2.043-0.19922 2.9805-0.089843 0.32031-0.14844 0.60937-0.12891 0.62109 0.050782 0.050781 0.69922-1.0391 1.1016-1.8398 4.6836-9.3672 1.9766-20.727-2.0039-29.832-0.14453-0.33203-0.29687-0.66016-0.44922-0.98828-0.30859-0.67188-0.55859-1.2188-0.53906-1.2188 0.078125 0 1.7109 2.5 2.4023 3.6992 2.8555 4.9648 4.918 10.789 5.1133 16.555 0.03125 0.87891 0.070313 1.832 0.10156 2.1094l0.050781 0.51172 0.71094 0.12109c4.9375 0.83594 8.1094 5.9141 8.9023 10.512 0.21094 1.2188 0.30078 3.9805 0.14844 4.9531-0.10156 0.67969 0.058593 0.41016 0.5-0.83984 0.64062-1.8086 1.1719-4.2617 1.4492-6.6602 0.19922-1.6797 0.16016-6.5508-0.058594-8.3516-1.2656-10.363-6.0039-19.984-13.293-27.441-5.5586-5.6875-12.793-10.602-20.578-12.57-2.1211-0.53125-4.6016-0.73047-6.25-0.48828-0.57812 0.089844-2.1562 0.46875-2.2305 0.53906 0.12891-0.12109 1.1992 0.035157 1.4453 0.042969 0.84766 0.023438 1.6875 0.10156 2.5234 0.24609 6.8516 1.1602 12.703 6.1992 15.578 12.418-0.32422-0.70312-1.3828-1.4609-1.9219-2.0273-0.6875-0.71875-1.3945-1.4102-2.0977-2.1133-1.1445-1.1484-2.2617-2.6367-3.8086-3.2578z" />
  <path d="m44.387 12.461c-0.019531-0.03125-0.12109 0.17187-0.21875 0.42969-0.63281 1.6445-1.7852 3.0508-3.1172 4.1797-1.4297 1.2109-3.0352 1.9375-4.7148 2.7227-1.75 0.81641-3.5117 1.6797-4.9922 2.9414-0.32812 0.28125-0.6875 0.50391-1.0312 0.77344-1.0586 0.83594-2.1562 1.6055-3.2344 2.4141l-0.39062 0.35938 0.33984-0.53906c0.74609-1.1836 1.8477-2.0977 2.9688-2.9102 0 0 1.3086-0.94922 1.3086-0.94922 0-0.71875-0.015626-1.3594 0.24609-2.0469 0.30078-0.79297 0.80859-1.4961 1.3711-2.125 0.5625-0.62891 1.1836-1.2031 1.7578-1.8242 0.50391-0.54297 1.0664-1.1289 1.4766-1.7422 0.41016-0.62109 1.1016-2.2383 1.0312-2.4297-0.019531-0.050782-0.16016 0.17188-0.32812 0.48828-0.51953 1-1.5703 1.9414-3.8984 3.4688-1.8203 1.2109-2.2617 1.5508-3.2617 2.5508-1.6484 1.6484-2.7695 3.4609-3.1016 5.0117-0.042968 0.19141-0.074218 0.48828-0.21484 0.62109-0.11328 0.10547-0.42969-1.5469-0.44141-1.6836-0.039062-0.52344-0.03125-1.0508 0.03125-1.5742 0.023438-0.19141 0.070313-1.1914 0.25391-1.3008-0.28906 0.17188-0.49609 0.62109-0.67969 0.89453-1.3086 1.9727-1.8242 4.5938-1.1484 6.8906 0.066406 0.22266 0.15625 0.48438 0.13672 0.71484-0.003906 0.03125-0.55859-0.47266-0.59766-0.48828-0.007812 0.023437-0.003906 0.046875 0 0.074218 0.17578 0.82422 0.30469 1.6797 0.25781 2.5273-0.0625 1.1016-0.61719 2.1172-1.6836 2.5273-0.089844 0.035156-0.18359 0.0625-0.27734 0.042969-0.074219-0.015625-0.13672-0.066407-0.19531-0.11719-0.30469-0.26562-0.53125-0.60156-0.69531-0.96875-0.10938-0.25-0.21875-0.46094-0.25-0.46094-0.039062 0-0.089844 0.28125-0.12891 0.62109-0.13281 1.1445-0.33984 2.2969-0.23828 3.4492 0.089844 1.0117 0.44141 2.0742 1.1992 2.7891 0.5 0.46875 0.69141 0.51953 0.48828 0.16016-0.28125-0.53125 0.019532-1.5117 0.57813-1.9102 0.53125-0.37891 1.6094-0.73047 2.3086-0.75l0.64844-0.011719c0-1.1406 0.25781-2.0156 1.2188-2.7383 0.59766-0.44922 1.2969-0.73047 2-0.97656 0.17969-0.0625 1.9062-0.64062 1.9023-0.61719-0.035156 0.42188-0.85937 1.0352-1.1484 1.3516-0.60547 0.66797-1.1211 1.4219-1.5273 2.2305-0.50781 1.0117-1.625 2.9141-2.9727 1.6797l-0.23828-0.23047 0.070312 0.25c0.11719 0.41406 0.32422 0.92188 0.63281 1.2344 0.38281 0.38672 0.95312 0.59766 1.4062 0.89844 0.69531 0.46094 1.0117 1.0625 1.0117 1.8906 0 0.44141-0.058594 0.75-0.19922 1.0117-0.10938 0.19922-0.17188 0.37109-0.12109 0.37109 0.35938 0 0.88672-0.75 1.0859-1.0078 0.36328-0.47266 0.49219-1.043 0.51563-1.6328 0.035156-0.90625-0.035157-1.8398 0.26953-2.7109 0.25781-0.73828 0.75-1.3945 1.2617-1.9805 1.4844-1.6914 3.7578-3.0156 6.0586-3.0156 0.21875 0 0.48828 0.027344 0.69531-0.035156-1.0508-1.0508-2.875-1.0742-3.7734-2.3398-0.34766-0.48828-0.089844-0.8125 0.25781-1.2031-0.93359 0.035156-1.8008 0.23047-2.6797 0.52734 0 0 0.1875-0.20703 0.19141-0.21094 0.44922-0.49609 1.0742-0.82031 1.6836-1.0781 0.25781-0.10938 1.0703-0.53516 1.3672-0.44141l-0.73047-0.23047c-0.26172-0.085938-1.0938-0.15234-1.0273-0.44141 0.039063-0.16797 0.39453-0.39453 0.51562-0.5 0.71875-0.60547 1.5-1.1445 2.2773-1.668 1.6953-1.1328 3.3555-2.332 4.7578-3.8203 1.1758-1.2461 2.1797-2.6758 2.8516-4.2617 0.25391-0.60156 0.44531-1.1953 0.60156-1.8359 0.042969-0.17969 0.375-1.125 0.22266-1.2812zm-17.359 17.418c-0.39844 0.14844-0.75 0.25-0.78125 0.23047-0.019532-0.03125 0.14062-0.42969 0.37891-0.89062 0.32812-0.67188 0.60938-1.0391 1.3711-1.8203 0.30078-0.30078 0.62109-0.69922 0.98047-0.89063 0.011719 0.10156 0.011719 0.19141 0.019532 0.28906 0.03125 1.3398-0.71094 2.6094-1.9688 3.0781z" />
  <path d="m38.348 33.098c0.085938 1.0586-0.078125 2.1875-0.85547 2.8828-0.16016-0.64453-0.31641-1.2891-0.47656-1.9336-0.10156-0.41406-0.25391-0.89062-0.65234-1.0469-0.21094-0.082031-0.44531-0.050781-0.66797 0-0.32812 0.078125-0.64453 0.20312-0.9375 0.375-0.058593 0.035156-0.11719 0.070312-0.14453 0.13281-0.050781 0.11328 0.035157 0.23438 0.10938 0.33203 0.33984 0.42969 0.64062 0.89453 0.86328 1.3984 0.78125 1.75 0.44141 3.5664-0.39844 5.2148-0.91016 1.7812-2.5742 3.2383-3.8828 4.7383-1.3711 1.5742-2.6914 3.2305-3.6094 5.1172-1.2422 2.5547-1.6992 5.4805-1.2969 8.2891-0.77734 0.30859-1.7773-0.14844-2.5625-0.25391-1.1484-0.15234-2.293-0.29688-3.4414-0.44922-0.14062-0.019531-0.29297-0.035156-0.42188 0.023438-0.13672 0.0625-0.22656 0.19141-0.30859 0.31641-0.55078 0.73438-1.0156 1.543-1.5195 2.3086-0.71094 1.0781-1.5859 2.0781-1.2422 3.4688 0.48047 1.957 2.7539 2.6133 4.4648 1.8672-0.53125 0.011719-1.0469-0.21875-1.4297-0.57812-0.19141-0.17969-0.35156-0.39844-0.46875-0.63281-0.054688-0.11328-0.14062-0.68359-0.19141-0.72266 1.293 0.92578 3.1602 0.80469 4.3789-0.19141-0.007812 0.003906-0.62109-0.070312-0.66406-0.070312-1.168-0.023438-2.1211-1.0156-2.3047-2.1328-0.12109-0.71875 0.21484-1.4141 1.0117-1.1055 0.80078 0.30859 1.5273 0.78125 2.1953 1.3164 0.61328 0.49219 1.1445 1.1484 1.8516 1.5078 0.48828 0.25 1.5312-0.43359 1.9609-0.61719 0.066407-0.027344 0.14062-0.058594 0.20703-0.039063 0.070313 0.019531 0.11719 0.078125 0.16406 0.13672 1.4727 1.9219 3.6367 4.1289 6.0273 4.832l0.23828 0.070313-0.058594-1.1289c-0.11719-2.2266-1.0859-4.2109-1.6211-6.3398-0.015624-0.0625-0.027343-0.11719-0.074218-0.16016-0.32422 0.39844-0.45703 0.92969-0.58594 1.418-0.058594 0.22266-0.17578 1.3008-0.51953 1.1484-0.35547-0.15625-0.625-0.53906-0.84375-0.84766-0.32812-0.46094-0.39453-1.0078-0.21875-1.5508 0.30859-0.96484 1.1172-1.7383 1.5312-2.6758 0.39844-0.90625 0.5625-1.8711 0.5625-2.8594v-0.75l-0.46094 0.60938c-0.78906 1.0508-2.5898 2.4922-2.8203 2.2617-0.039063-0.03125-0.078125-0.39062-0.10156-0.80078-0.039062-0.62109 0-0.82031 0.19922-1.2695 0.33984-0.73828 0.73828-1.1719 2.1289-2.2617 2.1602-1.7109 3.5312-3.2891 4.4922-5.1914 0.19922-0.39844 0.35938-0.75 0.35938-0.78906 0-0.03125-0.28906 0.21094-0.64844 0.53906-0.64062 0.60938-2.2109 1.6992-3.0508 2.1211-0.37891 0.19922-1.4492 0.60156-1.582 0.60156-0.10156 0 0.10938-0.76953 0.33203-1.1914 1.8125-3.457 6.6797-4.0586 8.0508-7.8281 0.27344-0.75391 0.39453-1.543 0.5-2.3359l-0.21094 0.39844c-0.34766 0.66406-0.90625 1.207-1.4805 1.6797-0.15234 0.125-1.4688 1.2344-1.6602 1.0508-0.17188-0.16406 0.28125-1.2969 0.34766-1.4727 0.3125-0.82031 0.80469-1.5273 1.3516-2.207 1.0117-1.2617 1.2891-1.8516 1.2812-2.6406-0.011719-0.96875-0.41016-1.9688-1.2422-2.5156 0.019531 0.14063 0.035157 0.28125 0.046875 0.42578z" />
  <path d="m77.758 61.246c-3.3945 0.89844-5.4805 4.1055-6.1484 7.3828-0.050781 0.25781-0.097656 0.53125-0.023437 0.78516 0.14062 0.49219 0.62109 0.89844 0.87109 1.3398 0.41797 0.73438 0.85938 1.9023 0.32422 2.6875-0.45703 0.66797-1.3945 0.47266-1.8164-0.11719-0.28906-0.41016-0.37109-0.92969-0.37891-1.4297-2.1641 1.6523-3.6211 4.1992-3.9492 6.9023 0.66797-0.5625 1.4141-1.168 2.3438-1.1211 0.39453 0.019531 0.79297 0.18359 1.0391 0.49609 0.25391 0.32422 0.3125 0.77734 0.23047 1.1836-0.52344 2.5742-3.9258 4.4414-5.9961 5.5977-2.2305 1.25-4.7188 2.0938-7.1914 2.7227-5.5938 1.4297-11.523 1.5391-17.168 0.3125-3.9844-0.86719-7.9805-2.6445-10.984-5.4531-1.9648-1.8398-3.7578-4.7344-2.9727-7.5195 0.39453-1.3984 1.418-2.5547 2.6758-3.25 1.4453-0.79688 3.1172-0.83984 4.7188-1.0312 0.097657-0.011719 0.20312-0.027344 0.28125-0.082031 0.089844-0.0625 0.13672-0.16797 0.17578-0.26953 0.089844-0.21875 0.17969-0.44141 0.19922-0.67578 0.12109-1.4492-2.4414-1.0703-3.293-1.0117-1.7227 0.12109-3.4414 0.5625-4.9336 1.4297-4.1328 2.3945-5.0547 7.5195-2.9102 11.598 1.0742 2.043 2.7422 3.7227 4.5898 5.1055 3.1914 2.3867 6.957 3.9453 10.855 4.7617 5.5703 1.168 11.492 1.0234 16.992-0.43359 5.0703-1.3477 9.8281-3.5352 13.965-6.7812 0.6875-0.53906 1.2734-1.2188 2.0664-1.6094 0.30078-0.14844 0.64453-0.25 0.96875-0.16016 0.39453 0.10938 0.66406 0.48828 0.76172 0.88281 0.23047 0.95312-0.17578 1.9883-0.73047 2.75-0.50781 0.69531-1.1719 1.2539-1.8398 1.7891 0.26562-0.21484 0.78125-0.30859 1.0977-0.46094 0.40625-0.19531 0.80078-0.41016 1.1797-0.64844 1.1016-0.6875 2.0898-1.5508 2.9258-2.5391 0.42188-0.5 0.80469-1.0312 1.1406-1.5938 0.12109-0.20312 0.76172-1.7773 0.88672-1.7969-0.76172 0.11328-1.6172-0.035156-2.1094-0.67969-0.21484-0.28125-0.33203-0.64844-0.27344-1 0.074219-0.46875 0.44141-0.85156 0.85547-1.0781 0.85156-0.46875 1.918-0.63281 2.8672-0.48828 0.33203 0.050781 0.066407-2.8789 0.023438-3.1211-0.46094-2.625-2.0312-4.8594-2.5234-7.4688-0.41406-2.1992 0.003907-5.0742 2.2891-6.0977-0.37109 0.03125-0.73828 0.097656-1.0977 0.19531z" />
</svg>
