<svg xmlns="http://www.w3.org/2000/svg" xmlns:xlink="http://www.w3.org/1999/xlink" xml:space="preserve" version="1.1" viewBox="0.0 0.0 650.0 650.0">

<g>
  <path class="fil0" d="M428 70c-12,-13 -22,-18 -48,-25 16,13 28,42 -37,16 26,20 12,33 -32,33 38,11 22,24 -25,44 46,0 9,24 0,51 20,6 27,52 53,73 -6,-9 -12,-20 -17,-32 -14,-30 -15,-62 2,-92 6,-11 14,-21 23,-29 20,-19 52,-36 81,-39zm148 378c9,-6 16,-8 17,30 4,-21 9,-32 5,-57 -2,-13 9,-11 18,5 0,-19 0,-34 -18,-46 -3,-3 -6,-10 -3,-15 5,-7 12,1 23,5 -14,-35 -40,-39 -59,-57 -2,-2 -2,-4 -1,-6 3,-5 10,-1 16,-3 -39,-22 -54,-14 -99,-31 10,6 20,11 31,16 41,20 73,50 78,97 1,15 0,29 -2,43 -1,7 -3,13 -6,19z"/>
  <path class="fil0" d="M67 266c-3,-19 -6,-37 5,-64 4,7 8,13 15,14 3,-16 11,-32 23,-47 1,11 5,23 14,22 13,-16 25,-22 37,-22 -8,11 -9,20 -9,20 19,-2 35,-3 59,-1 -16,10 -30,18 -50,24 4,7 12,6 18,8 -16,11 -37,13 -48,11 2,6 7,9 14,11 -19,20 -34,12 -57,34 2,-6 5,-12 8,-18 13,-21 32,-42 55,-50 4,-2 15,-5 20,-9 -2,0 -20,0 -22,1 -26,4 -48,19 -64,38 -7,9 -13,18 -18,28z"/>
  <path class="fil0" d="M119 530c-19,-10 -44,-25 -63,-37 -33,-22 -35,-37 -35,-37 0,0 37,31 35,15 -2,-16 -10,-24 -23,-35 -14,-11 -33,-47 -33,-47 0,0 23,27 29,17 7,-10 -17,-41 -19,-54 -3,-13 -5,-41 -5,-41 0,0 8,26 20,28 11,2 14,-13 8,-26 -6,-13 4,-40 4,-40 0,0 2,26 14,37l0 0c-3,11 -5,22 -6,32 -6,50 14,104 40,145 10,15 22,30 34,43z"/>
  <path class="fil0" d="M324 499c11,9 21,18 25,26 9,19 1,49 1,49 0,0 -3,-24 -11,-22 -9,3 1,14 -9,32 -10,18 -24,24 -24,24 0,0 8,-11 5,-22 -4,-11 -16,1 -18,9 -2,8 -11,19 -19,22 -7,2 -10,2 -10,2 0,0 11,-6 8,-14 -4,-9 -12,1 -25,4 -14,4 -33,-6 -33,-6 0,0 15,5 20,-3 1,-2 2,-5 1,-8 15,2 29,0 43,-4 17,-6 32,-18 41,-34 9,-18 10,-37 5,-55z"/>
  <path class="fil0" d="M530 494c-2,12 -6,24 -14,32 -17,19 -45,17 -45,17 0,0 30,-14 17,-25 -13,-11 -24,8 -40,13 -16,6 -35,1 -35,1 0,0 22,-3 25,-15 1,-9 -11,-8 -23,-9 -22,0 -42,-9 -55,-27 15,6 23,7 21,-1 11,8 23,14 37,19 36,11 77,13 112,-5z"/>
  <path class="fil0" d="M459 74c-9,1 -19,1 -28,2 -57,4 -143,66 -104,152 26,57 62,80 94,96 39,19 93,45 87,89 -2,22 -18,37 -59,27 -88,-23 -73,-131 -153,-181 -48,-29 -109,-35 -144,10 -62,80 20,149 80,195 38,29 52,52 45,68 -6,15 -33,34 -70,19 -75,-33 -127,-96 -135,-193 -7,-86 35,-137 78,-153 -40,7 -88,45 -99,138 -12,93 73,217 159,239 86,23 133,-39 101,-100 -11,-19 -26,-34 -42,-47 -25,-11 -77,-38 -98,-72 -6,-9 -9,-17 -10,-26 -9,-65 68,-97 125,-49 20,16 40,41 58,74 19,34 31,56 44,72 27,33 75,53 116,32 24,-13 39,-35 42,-63 8,-65 -91,-100 -142,-140 -26,-21 -41,-46 -39,-74 5,-82 96,-86 153,-50l-18 9c-12,19 -25,16 -45,16 20,14 32,20 56,26 -2,6 -5,13 -19,14 15,12 27,10 38,19 4,4 -5,8 -13,8 6,10 30,18 34,21 12,13 0,23 0,29 9,-4 23,-12 28,-22 -6,-2 -9,-2 -12,-10 -2,-4 -16,-6 -5,-16 -3,0 -14,-3 -2,-8 -8,-3 -11,-7 -1,-10 -10,-5 -11,-26 -9,-32 0,0 3,4 8,10 12,-2 10,1 5,6 11,0 12,5 9,12 9,-1 11,2 8,10 10,-2 15,-1 9,10 11,1 20,3 11,10 4,3 7,5 10,6 13,1 26,-19 26,-19 0,0 -12,1 -16,-5 -6,-6 -28,-30 -35,-43 -5,-7 -1,-9 -5,-21 -3,-13 -14,-21 -16,-33 14,-25 44,-25 64,-21 -24,-14 -45,-16 -65,-5 1,-18 8,-38 22,-57 -17,7 -33,17 -48,40 -20,-19 -28,-51 -29,-83 -9,17 -16,49 -8,76 -26,-12 -42,-24 -57,-48 0,15 4,31 16,46zm44 220c-75,-37 -104,-64 -111,-98 -10,-46 52,-71 92,-49l16 -9c-49,-29 -122,-10 -126,51 -3,48 46,76 84,100 50,30 103,62 96,115 -7,64 -70,94 -122,72 -22,-9 -37,-20 -50,-37 -14,-16 -27,-39 -45,-73 -24,-44 -68,-98 -114,-95 -31,3 -58,35 -53,66 3,21 20,39 37,52 -11,-10 -20,-22 -24,-36 -8,-25 -3,-47 12,-60 18,-15 49,-12 78,14 53,47 58,158 146,186 89,27 150,-17 157,-65 8,-48 2,-96 -73,-134zm54 -152c12,16 11,16 9,32 -5,-10 -4,-13 -13,-19 -1,-6 1,-11 4,-13z"/>
</g>

</svg>