<svg xmlns="http://www.w3.org/2000/svg" xmlns:xlink="http://www.w3.org/1999/xlink" version="1.1" x="0px" y="0px" viewBox="0 0 100 100"  xml:space="preserve">

<path d="M25.901,37.827l-5.199,9.369c-0.267,0.484-0.179,1.098,0.215,1.491l0.799,0.798c0.611,0.595,1.316,0.601,1.923,0.277  c0.125-0.067,0.249-0.159,0.366-0.276c0.149-0.149,0.16-0.333,0-0.49c-0.457-0.448-0.715-1.058-0.719-1.71  c-0.003-0.658,0.252-1.278,0.719-1.744l14.389-14.389c0.925-0.923,2.539-0.915,3.454,0c0.149,0.148,0.297,0.19,0.465,0.014  c0.006-0.006,0.012-0.012,0.018-0.018c0.308-0.304,0.478-0.71,0.478-1.14c0-0.43-0.169-0.836-0.478-1.14l-0.797-0.808  c-0.396-0.39-0.994-0.477-1.479-0.201l-9.379,5.194L25.901,37.827z"/>
<path d="M41.982,56.806l-10.24-11.166c0.325,5.7,1.932,11.253,4.689,16.255L41.982,56.806z"/>
<path d="M25.277,51.173c1.004,5.538,2.941,10.798,5.768,15.661l3.776-3.463c-3.442-6.058-5.257-12.922-5.257-19.904v-0.2  l-0.149-0.162l-3.925,3.925c-0.147,0.158-0.15,0.33-0.008,0.471c0.471,0.471,0.726,1.087,0.726,1.741s-0.255,1.269-0.718,1.732  C25.422,51.044,25.35,51.11,25.277,51.173z"/>
<path d="M10.093,17.24c-1.444,1.452-1.467,3.872-0.014,5.318c1.455,1.448,3.879,1.434,5.325,0.008  c1.455-1.435,1.454-3.887,0.006-5.334C13.962,15.785,11.536,15.79,10.093,17.24z"/>
<path d="M16.891,24.054c-0.39,0.383-0.825,0.713-1.3,0.982l9.504,10.622l3.413-3.413l-10.623-9.504  C17.615,23.214,17.281,23.671,16.891,24.054z"/>
<path d="M60.759,77.281l-3.584-3.908c-2.027,1.836-4.255,3.476-6.639,4.881c-0.329,0.195-0.74,0.195-1.068,0  c-2.376-1.401-4.606-3.038-6.642-4.874l-3.577,3.9c2.716,2.63,5.766,4.945,9.077,6.891l1.675,0.982l1.676-0.982  C54.96,82.242,58.011,79.926,60.759,77.281z"/>
<path d="M55.744,71.812l-5.74-6.259l-5.747,6.265c1.774,1.599,3.695,3.048,5.745,4.302C52.058,74.863,53.977,73.411,55.744,71.812z"/>
<polygon points="30.905,41.616 66.223,80.126 76.287,83.439 72.976,73.372 34.466,38.054 "/>
<path d="M74.511,47.029l-3.924-3.924l-0.149,0.162v0.2c0,6.98-1.817,13.842-5.263,19.904l3.782,3.463  c2.828-4.864,4.765-10.124,5.769-15.663c-0.073-0.063-0.145-0.128-0.214-0.198c-0.463-0.463-0.718-1.078-0.718-1.732  s0.255-1.27,0.718-1.733C74.646,47.376,74.669,47.193,74.511,47.029z"/>
<polygon points="33.781,80.126 48.575,63.999 43.404,58.357 27.028,73.372 23.716,83.439 "/>
<path d="M84.593,17.232c-1.451,1.451-1.432,3.876-0.006,5.322c1.425,1.445,3.882,1.46,5.332,0.009  c0.002-0.002,0.003-0.003,0.005-0.005c1.448-1.448,1.425-3.87-0.012-5.316C88.467,15.789,86.042,15.784,84.593,17.232z"/>
<path d="M83.1,24.041c-0.38-0.386-0.716-0.827-0.982-1.3l-10.622,9.504l1.706,1.707l1.707,1.706l9.504-10.622  C83.933,24.765,83.488,24.436,83.1,24.041z"/>
<path d="M79.301,47.194l-5.198-9.367l-4.773-4.773l-9.371-5.19c-0.496-0.28-1.092-0.193-1.498,0.208l-0.779,0.789  c-0.319,0.319-0.486,0.717-0.486,1.155c0,0.424,0.173,0.837,0.474,1.132c0.218,0.225,0.338,0.155,0.487,0.007  c0.463-0.463,1.076-0.719,1.728-0.719c0.65,0,1.263,0.256,1.727,0.719L76,45.542c0.464,0.465,0.719,1.081,0.719,1.733  c0,0.646-0.256,1.258-0.719,1.722c-0.156,0.156-0.149,0.341,0,0.49c0.625,0.625,1.671,0.623,2.287,0l0.801-0.799  C79.482,48.294,79.569,47.68,79.301,47.194z"/>
<polygon points="51.558,50.873 56.471,55.38 69.098,41.616 65.537,38.054 "/>
<path d="M65.099,14.847H34.904c-1.965,4.447-5.776,7.924-10.399,9.492v1.502l5.06,4.527v-2.205c0-0.376,0.201-0.724,0.527-0.912  c3.055-1.757,5.7-4.253,7.65-7.218c0.195-0.296,0.525-0.474,0.879-0.474h22.762c0.354,0,0.684,0.178,0.879,0.474  c1.95,2.966,4.595,5.462,7.65,7.218c0.326,0.188,0.527,0.536,0.527,0.912v2.205l5.06-4.527v-1.502  C70.875,22.771,67.064,19.294,65.099,14.847z"/>
<path d="M63.57,61.89c2.758-5.003,4.366-10.555,4.692-16.25l-10.24,11.162L63.57,61.89z"/>
<path d="M60.824,21.664H39.179c-1.978,2.862-4.558,5.299-7.511,7.1v1.338l7.358-4.079c1.283-0.723,2.928-0.5,3.994,0.551  l0.799,0.809c0.701,0.694,1.092,1.63,1.092,2.627c0,0.992-0.388,1.925-1.092,2.628c-0.898,0.921-2.536,0.928-3.46,0.004  c-0.084-0.084-0.18-0.102-0.245-0.102c-0.04,0-0.142,0.01-0.234,0.102l-3.925,3.925L50,49.446l14.048-12.881l-3.925-3.925  c-0.139-0.137-0.343-0.135-0.48,0c-0.927,0.928-2.573,0.916-3.469-0.014c-0.68-0.667-1.083-1.626-1.083-2.612  c0-0.993,0.389-1.929,1.097-2.637l0.784-0.794c1.075-1.061,2.72-1.286,4.012-0.557l7.349,4.07v-1.333  C65.382,26.963,62.802,24.525,60.824,21.664z"/>

</svg>