<svg xmlns="http://www.w3.org/2000/svg" version="1.1" viewBox="0.0 0.0 100.0 100.0">
 <path d="m80.891 34.09c-1-12.191-7.6484-19.648-20.309-22.801h-0.003906c-6.9453-1.7188-14.211-1.7188-21.156 0-12.66 3.1523-19.32 10.609-20.312 22.711-0.66406 4.6797-0.22266 9.4492 1.2812 13.93 0.80859 2.5898 0.9375 5.3438 0.37891 8-1.5781 7.6719-0.57812 13.719 3 18 1.2266 1.4414 3.1641 2.0625 5 1.6094l4.4297-1.0781c0.19141-0.039063 0.38672 0.003906 0.53906 0.11719 0.13281 0.10156 0.20703 0.26562 0.19141 0.43359-0.10938 1.7109-0.37109 3.4141-0.78906 5.0781-0.40234 1.7461 0.085937 3.5781 1.3086 4.8906 3.4883 3.6484 8.7383 5.3398 15.559 5h1.6211c6 0 10.75-1.6992 14-5.0586 1.2305-1.3086 1.7266-3.1445 1.3203-4.8906-0.43359-1.6484-0.73047-3.332-0.87891-5.0312-0.003906-0.16797 0.070313-0.32422 0.19922-0.42969 0.16016-0.11328 0.35938-0.15625 0.55078-0.12109l4.4219 1.0781-0.003907 0.003906c1.8398 0.45312 3.7734-0.17188 5-1.6094 3.5586-4.25 4.5781-10.289 3-18-0.55469-2.6562-0.42969-5.4102 0.37109-8 1.5078-4.4492 1.9453-9.1836 1.2812-13.832zm-45.141 33.699c-1.6602-0.042968-3.2969-0.38281-4.8398-1h-0.12891c-3.2617-1.5703-5-4.8906-5.2188-9.8711l-0.003906 0.003906c-0.18359-4.3086 2.7109-8.1406 6.9023-9.1406 2.0664-0.42969 4.1953-0.51172 6.2891-0.24219 2.875 0.26953 5.4609 1.8594 7 4.3008 2 3.3594 1.4492 7.0703-1.6914 11.301-2.5078 3.1406-5.1172 4.6484-8.3086 4.6484zm21.25 10.102c-0.13672 1.0039-0.74609 1.8789-1.6406 2.3594-1.8125 1.0508-4.1289 0.55859-5.3594-1.1406-0.77344 1.0273-1.9648 1.6484-3.25 1.6914-0.72266-0.011719-1.4336-0.19922-2.0703-0.53906-0.91406-0.48438-1.5391-1.3789-1.6797-2.4023-0.89844-5.8086 0.46875-10.52 4.0781-13.93 1.6367-1.543 4.1875-1.543 5.8203 0 3.6211 3.4297 4.9922 8.1211 4.1016 13.961zm12.211-11.109h-0.12109c-1.543 0.61719-3.1875 0.95703-4.8516 1-3.1914 0-5.7812-1.5-8.2383-4.6406-3.1484-4.25-3.6992-8-1.7109-11.32 1.5352-2.4453 4.125-4.0352 7-4.3008 2.0977-0.27344 4.2227-0.19141 6.2891 0.24219 4.1914 1.0039 7.0781 4.8359 6.8906 9.1367-0.23828 4.9922-1.9883 8.3125-5.2578 9.8828z"/>
 <path d="m50 65.391c-0.40625 0.011719-0.79297 0.17188-1.0898 0.44922-3 2.8281-4.0586 6.6406-3.2812 11.648 0.023438 0.1875 0.12891 0.35156 0.29297 0.44141 0.51953 0.26953 1.5312 0.78906 2.9414-1.7695h-0.003906c0.22656-0.42188 0.66406-0.67969 1.1406-0.67969 0.48047-0.003907 0.92969 0.25781 1.1602 0.67969 1.4102 2.5586 2.4219 2 3 1.75 0.14062-0.085937 0.23438-0.22656 0.26172-0.39062 0.78125-5-0.28906-8.8516-3.2812-11.68-0.30469-0.29297-0.71484-0.45703-1.1406-0.44922z"/>
</svg>