<svg xmlns="http://www.w3.org/2000/svg" version="1.1" viewBox="0.0 0.0 100.0 100.0">
 <g fill-rule="evenodd">
  <path d="m31.512 74.887-6.6953-6.6953-12.418 12.441c1.8008 0.09375 3.4219 0.85938 4.6133 2.0547 1.1953 1.1953 1.9609 2.8164 2.0547 4.6133z"/>
  <path d="m16.738 87.676c0-1.3008-0.52734-2.4766-1.3789-3.3281-0.85156-0.85156-2.0273-1.3789-3.3281-1.3789s-2.4766 0.52734-3.3281 1.3789c-0.85156 0.85156-1.3789 2.0273-1.3789 3.3281s0.52734 2.4766 1.3789 3.3281c0.85156 0.85156 2.0273 1.3789 3.3281 1.3789s2.4766-0.52734 3.3281-1.3789c0.85156-0.85156 1.3789-2.0312 1.3789-3.3281z"/>
  <path d="m54.125 55.379-45.805-45.805 3.0117 11.938c0.1875 0.74219 0.48438 1.4648 0.87891 2.1484 0.39453 0.68359 0.89453 1.332 1.4805 1.918l42.172 42.172-1.3516-9.6094z"/>
  <path d="m41.738 71.84-13.844-13.844c-0.039062-0.035156-0.078125-0.074219-0.11328-0.11328l-2.7969-2.7969-4.9805 4.9805 19.629 19.629 4.9805-4.9805-2.8086-2.8086c-0.019532-0.019531-0.042969-0.042969-0.066407-0.066406z"/>
  <path d="m48.398 63.594-12.289-12.289-5.7969 5.7969 12.289 12.289z"/>
  <path d="m63.168 50.477-37.188-37.188c-0.58594-0.58594-1.2344-1.0859-1.918-1.4805-0.68359-0.39453-1.4062-0.69141-2.1484-0.87891l-11.938-3.0117 45.805 45.805 2.7617 0.38672 9.6094 1.3516z"/>
  <path d="m58.336 68.562 10.629-10.629-10.746-1.5117-1.6211-0.22656 0.23047 1.6211z"/>
  <path d="m74.492 65.68 5.6094-5.6094-4.9805-4.9805-19.633 19.633 4.9805 4.9805 5.6094-5.6094c0.011719-0.011719 0.019531-0.023438 0.03125-0.03125l8.3477-8.3477c0.015625-0.015625 0.023438-0.023438 0.035157-0.035156z"/>
  <path d="m87.707 80.633-12.418-12.441-6.6953 6.6953 12.441 12.418c0.09375-1.8008 0.85938-3.4219 2.0547-4.6133 1.1953-1.1953 2.8164-1.9648 4.6172-2.0586z"/>
  <path d="m92.785 87.676c0-1.3008-0.52734-2.4766-1.3789-3.3281-0.85156-0.85156-2.0273-1.3789-3.3281-1.3789s-2.4766 0.52734-3.3281 1.3789c-0.85156 0.85156-1.3789 2.0273-1.3789 3.3281s0.52734 2.4766 1.3789 3.3281c0.85156 0.85156 2.0273 1.3789 3.3281 1.3789s2.4766-0.52734 3.3281-1.3789c0.85156-0.85156 1.3789-2.0312 1.3789-3.3281z"/>
  <path d="m63.996 47.996 22.414-22.414c0.58594-0.58594 1.0859-1.2344 1.4805-1.918 0.39453-0.68359 0.69141-1.4062 0.87891-2.1484l3.0117-11.938-33.102 33.102z"/>
  <path d="m57.023 41.023 33.105-33.105-11.938 3.0117c-0.74219 0.1875-1.4648 0.48437-2.1484 0.87891-0.68359 0.39453-1.332 0.89453-1.918 1.4805l-22.418 22.418z"/>
 </g>
</svg>