<svg xmlns="http://www.w3.org/2000/svg" viewBox="0 0 330 265" width="330" height="265">
<g xmlns="http://www.w3.org/2000/svg" transform="matrix(0 -1 1 0 -89.513214 266.1682)">
  <g clip-path="url(#clip0_345_201)">
    <path fill="black" d="M236.14 85.1797L242.43 84.1797L248.5 84.1799L251.23 95.2397L252.49 102.79L252.74 106.06V119.62L252.24 126.42L250.98 134.72L249.47 141.5L247.21 149.8L244.44 158.85L241.93 164.89L238.91 170.92L235.89 175.95L233.88 179.98L232.12 182.99L229.35 187.02L226.84 190.03L223.57 195.06L221.05 198.33L218.04 201.85L215.02 205.62L212.76 208.39L210.49 210.9L208.23 213.67L205.46 216.44L203.7 218.44L201.44 220.96L199.18 223.73L195.91 227L194.15 229.01L191.88 231.02L189.88 233.54L186.6 237.06L184.6 238.82L181.32 242.09L179.06 244.85L176.29 247.87L172.27 251.64L170.51 253.4L168.25 256.17L163.97 260.44L161.96 262.2L159.95 264.22L157.18 267.74L154.92 270L153.92 271.26L151.9 273.02L149.39 275.53L147.37 278.3L139.83 285.84L138.33 287.85L136.56 290.37L134.8 292.38L132.79 294.14L130.28 296.91L127.51 300.68L126.25 302.69L123.74 305.46L120.97 308.98L118.46 312.5L116.7 314.76L115.94 316.26L113.18 320.54L110.91 323.81L109.66 325.32L105.88 332.62L104.38 335.63L101.86 340.41L98.3403 347.2L95.5703 354.5L93.3103 363.04L91.3003 370.08L88.5303 382.15L87.5303 388.95L87.0303 394.98L86.7703 400.01V414.34L87.0203 423.39V430.69L85.0203 431.44L77.4703 432.7L66.6603 433.7L62.6303 433.96L53.3303 434.21L47.0403 434.46V433.96L50.0603 432.95L52.5703 430.69L55.0903 428.17L57.6003 424.15L59.6103 419.87L60.6203 417.11L61.6203 411.32L61.8803 406.29L61.3803 401.01L60.6203 398L59.1203 394.22L57.1003 390.7L54.8403 388.19L51.3103 385.93L47.7903 384.92H44.2703L41.5103 385.92L38.7403 387.68L37.4903 388.94L34.9703 391.71L32.7103 395.73L31.2003 399L30.2003 403.28L29.9403 405.04V413.59L30.4403 419.37L31.4503 423.9L33.4603 427.92L34.4603 429.18L40.2603 433.2L42.0103 433.96V434.21L39.5003 433.96L34.9703 433.2L29.6903 432.45L22.1403 430.69L17.1203 429.43L12.8403 427.67L10.8303 426.16L9.57031 424.66L10.0703 424.4L11.3303 424.65H13.0903L17.1203 422.89L19.3803 421.13L21.1403 419.12L22.1403 418.36H22.6403L23.1503 417.36L24.4103 414.34L26.4203 408.81L27.4203 405.04L27.6803 403.78V396.74L26.9203 390.2L25.4203 385.67L23.6503 381.65L21.3903 378.63L19.6303 377.13L16.8603 376.37L11.3303 375.87L10.3303 374.36L10.5803 372.6L11.3303 371.09L12.0903 370.33L13.5903 370.59L18.6203 373.1H21.1403L25.9203 371.09L28.4303 369.33L30.9503 366.81L32.9503 365.31L35.9803 360.02L38.4903 354.49L39.4903 350.22L39.7503 347.7V342.17L39.2503 338.4L37.7403 334.63L36.7303 334.13L34.2203 332.61L30.9503 330.85L29.6903 330.35L30.4403 328.09L30.9403 327.59L33.9603 328.09L37.9903 328.59L41.2603 328.09L44.5303 326.58L47.0403 325.07L48.5403 324.07L49.8103 323.31L52.3203 320.8L55.0903 317.02L57.6003 313L59.1103 309.98L59.8603 307.72L60.1203 304.2L59.3603 299.17L58.1103 296.15L56.8503 293.89L57.1003 292.63L58.8603 290.87L61.3703 289.37L63.3903 289.61L65.9003 289.86H70.6803L76.7103 286.6L79.4803 284.84L82.5003 282.32L83.7503 281.32L86.5203 277.29L89.7903 273.27L91.5503 270.5L92.5503 266.23V264.72L91.0503 260.44L91.3003 258.68L93.0603 257.18L95.0703 255.42L98.0903 252.4L99.5903 252.65L102.61 253.65L104.63 254.41H108.15L112.17 253.65L115.44 252.4L118.2 250.64L121.22 248.63L123.74 246.61L126 244.35L127.5 241.58L129.02 239.07L129.52 236.81V232.78L128.26 230.27L127.51 229.27L127.76 228L128.76 226.75L132.29 223.98L133.79 222.98L136.06 222.72L140.33 224.23L142.6 223.48L147.63 221.97L151.9 219.46L155.42 217.44L157.68 215.68L158.44 215.43L158.94 214.43L159.44 212.41L161.21 209.4L162.71 206.88L163.47 204.87V203.11L161.96 200.34L162.21 199.09L164.47 196.57L166.74 194.81L168.5 194.31H172.52L174.53 194.81H176.8L180.82 192.55L182.58 191.29L184.08 190.54L187.61 188.02L188.87 187.02H189.37L189.87 185.76H190.37L189.87 187.02L188.37 190.29L188.11 191.79V196.32L188.61 197.82L189.37 199.34L189.87 201.1L192.39 202.36L193.39 203.36L194.15 203.61H198.67L201.69 202.86L205.21 200.34L208.98 197.58L210.24 196.32L212.25 194.06L213.76 191.29L215.77 187.27L216.53 184.75L216.78 182.24L216.28 178.97L215.52 176.96L214.77 176.2V175.7L213.77 175.2L212.5 173.69L210.5 172.93H206.22L202.19 174.19L198.93 176.2L195.91 177.71L192.64 180.73L191.64 180.98L192.39 179.48L192.64 176.45V171.42L191.88 167.4L193.14 166.15L195.15 164.89L196.41 163.63H199.43L201.69 163.13L204.96 160.61L206.22 159.36H206.72L207.22 158.35L209.49 155.83L210.49 154.58L211.25 153.32H211.75L213.25 160.36L215.02 163.88L216.28 165.14L219.04 166.14H222.06L224.58 165.14L227.08 163.38L229.6 161.11L232.12 157.6L233.88 154.83L235.64 146.53L235.89 145.03V140.24L235.14 137.48L233.63 134.46L231.87 132.96L230.61 132.45H226.84L223.82 133.2L220.8 134.71L219.04 136.47L216.53 139.99L214.27 143.01H213.77L213.01 138.73L212.25 134.96L211.5 133.96L211.75 132.2L212.75 130.69L214.01 129.69L216.02 128.68L218.54 126.41L220.55 124.41L222.56 121.13L223.32 119.37L224.07 115.6H224.57L225.58 118.37L226.84 122.14L228.09 124.15L230.61 125.91L232.11 126.66L234.89 127.16L238.4 125.91L240.67 124.15L242.43 122.14L244.69 118.11L246.45 112.33L246.7 110.57V103.53L245.7 98.9997L244.44 95.9897L243.18 94.2297L241.68 93.2197L239.66 92.7197H235.39L232.87 93.7197L230.36 95.9897L228.1 99.5097L226.34 102.52L225.08 104.54H224.58L222.56 101.01L219.55 97.2397L218.54 93.4697L218.29 91.4597L219.04 90.1997L220.04 89.4497L223.32 88.1897L236.14 85.1797ZM193.39 174.45L193.14 176.46L193.9 175.71L193.64 174.45H193.39ZM177.8 204.88L173.78 205.88L167.74 208.4L165.98 209.4L162.46 211.92L161.96 212.92L160.96 213.43L158.94 216.2L156.68 219.72L154.92 223.74L154.42 227.01V229.02L156.18 232.04L158.44 234.8L160.7 236.56H165.73L169.75 235.56L174.53 233.3L177.3 231.54L180.82 228.77L183.08 226.51L186.35 221.98L188.36 218.21L189.12 215.44L189.37 212.68L188.62 210.16L187.86 208.66L185.1 206.89L181.57 205.13L180.82 204.88H177.8ZM143.6 235.81L139.08 237.31L133.29 239.83L130.78 241.59L127.26 245.11L124.49 248.63L122.48 252.16L120.98 256.43V260.2L122.48 262.47L124.74 264.98L127.26 266.74L128.51 267.24L132.79 266.99L136.81 265.74L141.59 263.22L145.87 260.7L149.39 257.19L152.4 253.16L153.91 250.39L155.42 247.89L155.92 246.62V243.35L154.42 240.34L153.16 238.83L150.39 237.07L147.37 235.81H143.6ZM110.41 264.98L107.89 265.48L104.88 266.74L99.8503 269.51L98.0903 270.51L95.5703 272.27L94.5703 273.78L93.0603 275.04L90.2903 278.56L87.7803 281.83L86.5203 284.85L85.7703 287.86V291.89L87.5303 295.41L89.2903 297.67L91.2903 299.43L92.8103 300.18H98.5903L101.36 299.68L105.38 297.68L107.89 295.41L110.91 293.14L113.18 291.64L115.18 289.37L117.95 284.34L119.97 281.33L120.97 278.56L121.22 277.06V274.03L120.22 271.02L118.46 268.75L116.19 266.49L112.17 264.98H110.41ZM77.9703 298.68L74.2003 299.93L68.6703 303.2L66.6603 304.46L64.1403 307.48L63.1403 308.73L61.3703 312.76L60.1203 314.77L58.6103 319.55L58.1103 322.57V325.08L58.8603 328.6L59.8603 330.61L62.8803 333.63L64.3903 334.89L65.1503 335.14H71.1803L74.2003 334.39L76.9703 332.88L79.4703 330.86L81.9903 328.6L84.0103 325.83L86.2703 322.31L88.2803 318.29L89.7903 314.77L90.2903 312.76V307.98L89.2903 304.71L88.5303 303.45L87.2803 301.95L86.5203 300.69L84.5103 299.69L83.5103 298.93L82.7503 298.68H77.9703ZM60.1203 336.9L55.8403 337.9L52.8203 339.41L49.5503 342.18L47.0403 344.69L45.0303 346.45L42.7703 349.47L41.5103 351.99L39.5003 358.02L39.2503 359.78V367.83L40.2503 371.6L41.5103 375.37L43.0103 377.13L45.7803 378.89L48.8003 379.9H52.8203L56.3503 378.9L60.1203 376.88L62.1203 375.88L63.8903 373.87L66.4003 371.1L68.6703 367.58L70.4303 364.81L72.1903 360.29L72.9403 357.52L73.1903 355.76V349.47L72.1903 345.45L69.9203 341.68L68.1603 339.41L65.4003 337.41L64.1403 336.9H60.1203Z" />
    <path fill="black" d="M261.04 83.4202L263.04 92.9804L263.8 98.7604L264.3 105.3L264.56 110.33V120.13L264.06 128.69L263.05 136.49L261.54 144.78L259.53 153.33L256.51 163.13L255.01 168.42L253.24 173.2L250.22 179.48L246.45 187.03L245.45 188.79L243.43 192.81L240.92 197.34L239.16 199.6L236.65 203.62L233.38 208.65L230.86 212.42L227.59 216.95L226.59 218.45L225.33 219.72L223.82 221.98L222.06 224.49L219.8 227.01L218.04 229.02L216.03 230.78H215.53L215.02 231.78L213.26 234.05L211.25 236.56L208.73 239.33L206.73 240.84L204.96 242.85H204.46L203.96 243.85L202.7 245.37L200.94 247.63L198.93 249.89L196.91 251.4L195.15 253.16L193.39 255.17L192.39 256.43L190.63 258.94L188.36 261.46L187.11 262.72L184.59 265.48L181.07 270.01L179.57 272.02L176.8 274.79L174.03 278.31L171.26 281.58L169.5 284.09L167.5 286.86L164.22 291.38L162.97 292.64L161.96 293.9H161.46L160.96 295.16L159.7 296.92L157.94 300.44L155.93 303.2L154.42 305.22L151.65 309.49L148.88 314.02L146.12 319.05L143.1 323.82L141.09 327.09L138.32 332.37L137.07 335.39L130.27 348.97L127.77 354.75L125.75 360.79L122.98 368.33L120.47 376.38L118.96 382.92L117.46 390.72L116.7 397.5V418.63L114.69 420.89L110.91 423.15L105.13 426.17L101.61 427.67L96.83 429.19L91.3 430.19H89.79L89.29 428.69L88.79 414.85V402.03L89.29 392.73L90.04 386.69L91.55 378.39L94.57 365.82L95.57 361.29L97.33 356.01L101.36 346.71L103.87 341.93L106.39 335.89L109.15 331.37L112.42 325.83L115.19 322.06L117.7 317.29L119.97 314.27L121.97 312L125 307.98L127.5 304.21L130.28 301.19L132.54 298.43L135.3 295.16L138.32 291.64L140.59 288.87L142.35 287.11L144.11 285.1L147.12 281.83L148.38 280.57L151.15 277.55L154.67 273.53H155.17L155.42 272.78L157.43 271.02L159.7 268.5L161.96 265.74L165.23 262.47L169 258.94L170.76 256.94L173.02 254.42L176.29 251.15L178.3 249.39L178.8 248.64H179.31L179.81 247.63L181.83 245.62L184.09 242.85L188.87 238.07H189.37L189.87 237.07L192.64 234.05L194.4 232.04L196.66 229.77L198.67 228.02L201.44 225L203.45 222.48L206.22 219.47L209.74 215.94L212.5 212.42L214.52 209.66L218.29 205.89L221.05 202.37L223.57 199.1L227.09 194.32L230.61 189.29L232.11 187.28L233.88 184.76L235.89 180.74L238.66 176.21L240.92 172.44L243.69 166.66L244.69 164.39L245.69 160.62L248.72 152.58L251.73 142.01L253.49 134.21L254.49 126.93L255 120.89V108.32L254.25 100.02L253.25 92.9804L251 84L261.04 83.4202Z" />
    <path fill="black" d="M44.0195 387.439H49.0495L51.3195 388.199L53.5795 389.959L55.5895 392.719L57.5995 396.749L58.5995 399.769L59.1095 402.779L59.3595 405.799V409.069L58.8595 413.599L57.8595 417.869L56.0895 422.149L53.8295 425.919L51.5695 428.929L48.0495 430.699L46.2895 431.199H42.7695L39.4995 430.199L36.7295 428.179L34.9695 425.919L33.7095 423.909L32.4595 420.129L31.9595 417.869L31.6995 415.609V408.309L32.1995 404.539L33.4595 400.269L36.4795 393.979L38.9895 390.709L41.0095 388.709L42.5095 387.699L44.0195 387.439ZM12.8395 377.889H15.0995L17.6195 378.639L19.6295 380.149L22.1395 384.179L23.9095 388.949L24.6595 392.979L25.1595 397.999V403.039L24.6595 406.549L22.8995 411.579L21.1395 415.609L19.6395 418.119L17.6195 419.879L15.3595 421.139L13.0895 421.889H9.56953L7.80953 420.889L4.78953 418.119L3.53953 416.119L2.02953 412.339L0.769531 408.059L0.269531 405.299V398.759L1.26953 393.229L2.77953 388.699L4.28953 385.679L6.54952 382.159L10.0795 378.639L12.8395 377.889ZM59.8595 339.669H62.3795L65.3995 340.919L67.6595 343.189L69.6695 346.449L70.4295 349.719L70.6795 351.739V354.249L69.6795 359.529L67.9095 364.309L66.4095 366.819L63.1295 371.099L62.1295 372.599H61.6295V373.109H61.1295V373.609L58.6095 375.369L56.5995 376.369L52.5695 377.129H49.2995L46.5395 376.629L44.2695 375.129L42.7695 373.109L41.5095 369.839L41.2595 368.339V361.039L42.2595 356.509L44.5295 351.739L46.7895 347.959L48.7995 345.699L50.8095 343.939L53.0795 341.929L57.3495 340.169L59.8595 339.669ZM27.4295 333.629H30.1895L33.2095 334.629L35.2195 335.889L36.4795 337.399L37.4795 339.919L37.7395 341.169V347.709L36.9795 352.239L35.9795 355.259L32.7095 361.789L30.9495 364.309L29.1895 366.319L25.1595 368.579L22.1395 369.839L18.8795 370.599L16.3595 369.339L13.3395 366.569L11.8395 363.559L11.0795 361.039L10.8295 359.279V356.259L12.3295 350.479L14.0995 345.699L17.6195 340.169L20.1295 336.899L21.3895 335.639L26.1695 333.879L27.4295 333.629ZM80.4895 301.189H82.2495L84.0095 302.189L85.2595 303.449L86.5195 304.959L87.5195 307.979V313.259L86.5195 316.779L84.5095 321.059L83.2495 323.569L81.9895 324.829L79.4795 327.599L76.2095 330.109L72.4395 332.119L69.9195 332.879H67.1595L64.6395 332.119L62.8795 330.859L61.6295 328.859L60.8695 326.339L60.6195 323.069L61.1195 319.799L63.1295 313.759L64.8895 310.499L66.6595 307.729L69.1595 305.219L71.9395 303.449L75.4595 301.949L80.4895 301.189ZM109.15 267.499H112.67L115.19 268.499L116.69 270.509L118.2 273.529L118.46 276.549L117.96 279.559L115.94 283.839L113.93 286.609L111.92 289.119L108.9 291.889L106.64 293.139H106.14L105.64 294.149L103.12 295.649L99.0895 297.169L95.8195 297.669L92.8095 297.169L91.2995 296.409L89.7895 294.649L88.5295 292.139L88.2895 289.619L89.0395 285.599L90.0495 283.089L93.5695 278.059L95.5795 275.039L97.8495 272.779L104.89 268.999L106.89 267.999L109.16 267.499H109.15ZM51.5695 295.919L53.8295 296.159L55.8395 297.419L57.0995 299.179L58.0995 302.449V305.469L56.8495 309.489L54.5795 313.759L51.8195 317.789L49.8095 320.299L47.5395 322.569L45.0295 324.329L39.9995 326.329H36.4795L34.4695 325.329L32.9595 324.079L32.1995 322.569L31.9495 321.059V317.539L32.7095 314.269L34.9695 309.489L36.9795 306.469L38.7395 304.209L41.0095 301.949L42.2595 300.189L45.5295 297.669L47.7895 296.669L51.5695 295.909V295.919ZM175.29 207.899H181.57L183.59 208.649L184.84 209.649L186.1 211.919L186.35 212.919V215.439L185.35 218.459L183.33 222.229L180.06 226.249L177.56 228.519L176.04 229.519L173.53 230.529L171.01 232.029L168.25 233.299L164.48 234.049L161.46 233.799L159.44 232.799L157.94 230.529L157.44 227.759L158.19 222.729L159.44 219.469L161.71 216.699L164.47 213.929L167.74 211.419L171.26 209.149L174.03 208.149L175.29 207.899ZM143.85 238.579H147.63L150.14 239.829L151.9 241.339L152.9 243.349L153.16 244.359V246.869L151.15 250.139L148.63 254.169L146.87 256.429L145.11 258.189L141.59 260.449L139.33 261.709L137.57 262.709L134.55 263.969L132.54 264.469H127.51L125.5 263.219L124.24 261.459L123.99 260.459V256.679L124.99 252.659L126.76 249.389L129.77 246.119L132.79 243.099L136.81 240.589L139.58 239.589L143.85 238.579ZM83.7495 260.449L85.7695 260.699L88.5295 261.459L89.5295 262.459L90.5395 264.729V267.489L89.5395 270.009L87.2795 273.529L85.7695 275.289L83.7495 278.309L80.9895 281.329L78.2195 282.829L75.7095 284.599L72.6895 286.349L68.9195 287.609L67.4095 287.859H63.6395L62.6395 286.609L61.8795 283.839V281.069L62.8795 276.799L64.6395 273.279L66.9095 270.759L71.4295 266.239L75.4595 262.719L77.9695 261.459L82.2495 260.709L83.7495 260.449ZM206.97 175.209H209.49L211.49 175.959L212.76 176.959L214.01 180.239L214.26 181.239V184.009L213.76 186.019L212.5 189.039L209.24 193.819L206.72 196.329L204.21 198.089L200.94 200.099L198.17 200.859H196.16L192.14 199.859L190.88 198.339L190.63 197.589V193.309L191.38 188.029L192.14 185.519L194.65 182.249L198.67 178.219L202.7 176.219L205.71 175.459L206.97 175.209ZM226.59 134.219H228.59L230.36 134.719L232.37 136.479L233.87 138.999V145.279L233.12 149.559L231.62 153.579L230.61 155.589L228.6 158.359L227.09 160.119L224.32 162.379L223.07 163.379L221.81 163.889H219.29L216.78 162.889L215.27 160.869L214.52 158.359L214.27 153.829L215.02 148.799L216.28 145.279L218.28 141.759L221.05 137.489L222.31 135.979L224.07 134.719L226.59 134.219ZM235.89 94.2393L238.66 94.4893L241.67 95.9893L243.69 98.2593L244.69 101.529L244.94 104.039V107.559L244.44 112.089L243.18 116.369L241.18 120.139L239.41 122.399L237.65 123.899L236.15 124.409H232.12L230.61 123.659L229.35 122.149L228.1 119.129L227.34 115.859V110.329L228.09 105.799L230.36 100.519L231.86 97.7593L233.88 95.2393L235.89 94.2393ZM120.72 230.019H124.49L126 230.779L127 232.039L127.5 233.539V237.819L126.75 239.329L123.23 243.609L121.47 245.609L119.21 247.379L116.7 249.389L114.43 250.389L109.15 252.159L106.64 252.659L103.62 252.409L102.12 251.649L101.1 249.649V247.619L101.86 244.599L103.36 241.839L106.14 238.569L107.89 236.809L111.16 234.539L115.44 232.029L118.2 230.769L120.72 230.019ZM153.91 199.349H157.68L159.44 200.349L160.45 201.609L160.95 202.609L160.7 205.629L159.44 208.649L157.69 211.669L155.67 214.179L152.66 216.699L150.64 218.199L145.61 220.469L141.59 221.469L137.57 221.729L135.56 220.219L134.3 218.719V216.449L135.56 212.929L138.32 208.649L144.86 203.619L148.88 201.109L153.91 199.349ZM185.09 169.679H187.36L189.87 170.429L190.87 171.429L191.13 171.929V177.469L190.38 179.989L188.62 182.999L186.86 185.019L185.85 186.269L183.84 187.529L182.08 188.529L180.06 190.299L175.79 192.059L174.53 192.309H171.77L169.75 191.549L168.75 189.789L168.5 188.789V187.029L169.5 183.249L170.51 180.239L172.01 177.719L175.29 174.699L179.31 171.689L181.57 170.429L185.1 169.679H185.09ZM217.03 99.7693H218.54L222.06 103.289L223.32 105.549L223.57 106.809L223.32 112.339L221.31 118.379L219.29 122.399L217.29 125.169L214.52 127.679L213.01 128.429L209.99 126.679L208.99 125.419L208.23 123.659L207.98 121.899V115.609L208.73 111.589L210.49 106.809L213.01 102.529L214.26 101.279L216.28 100.019L217.03 99.7693ZM206.72 135.479H208.73L210.49 135.979L210.99 137.239L211.25 138.739L211.5 142.769V145.789L209.99 151.069L208.23 153.829L205.97 156.349L204.21 158.349L201.19 161.379L198.67 161.879L196.67 161.379L195.15 159.619L194.65 158.359L194.4 156.849V154.839L195.15 151.069L196.66 146.539L198.42 143.519L200.69 139.999L203.45 136.729L205.46 135.729L206.72 135.479Z" />
  </g>
</g>
</svg>