<svg xmlns="http://www.w3.org/2000/svg" viewBox="0 0 155 185" width="155" height="185">
<g xmlns="http://www.w3.org/2000/svg" transform="matrix(0 -1 1 0 -0 261.843)">
  <path fill="black" d="M155.42 1.95001H166.74L173.53 2.45001L179.06 3.21001L186.36 4.97001L194.65 7.73001L197.92 8.49001L202.7 10.49L207.47 13.01L211 14.77L214.01 16.78L219.54 19.8L223.07 22.32L224.57 24.08L227.34 26.34L229.6 28.35L232.62 30.62L234.38 32.62L236.9 35.9L239.16 38.41L240.92 40.42L243.94 44.7L246.7 49.73L248.97 53.25L252.74 60.29L254.75 64.06L258.77 75.88L260.5 79.9H250.23L247.21 70.85L244.44 63.55L241.42 57.27L237.9 51.24L235.39 47.97L233.12 43.94L230.86 41.43V40.93L229.86 40.43L226.84 37.66L224.07 34.39L222.57 32.12L220.55 30.12L218.04 28.6L214.77 26.09L211.25 23.32L207.22 20.81L201.44 18.04L192.89 14.52L185.59 12.01L178.3 9.99001L173.53 8.99001L166.49 8.23001H149.14L142.34 8.99001L133.29 11.25L127.26 13.52L116.19 18.8L112.42 21.06L108.15 24.08L105.13 26.84L103.12 28.85L101.36 30.11L101.11 30.61H100.61L100.09 31.62L98.08 33.88L95.81 37.15L94.31 39.92L91.29 45.2L89.53 48.72L87.77 52.49L86.01 58.28L84.5 62.3L82.99 75.12V85.94L83.74 92.73L84.5 100.27L85.76 105.05L87.52 109.07L89.02 112.59L93.55 119.39L96.07 123.41L98.07 125.92L100.34 128.43L105.87 133.97L107.88 135.73L112.16 139.25L116.94 142.77L119.96 144.27L125.99 146.04L129.01 147.04L132.53 147.8L134.54 148.05H142.84L149.13 146.79L158.18 144.28L163.46 142.01L166.98 140.01L169.24 138.24L170.75 136.74H171.25V136.23L174.02 133.97L175.78 132.46L178.04 129.69L180.05 126.42L182.07 121.64L183.32 116.36L183.82 113.35L184.33 114.1L184.58 114.86V119.38L183.32 122.65L180.05 129.69L177.55 132.96L172.76 137.74L170.76 139.5L168.24 142.01L164.72 144.28L158.68 146.79L153.65 148.8L149.38 150.06L144.1 150.81H136.8L131.27 150.06L125.74 148.56L119.45 146.29L114.17 144.03L108.64 140.5L105.37 138L102.6 135.48L99.84 133.21L96.07 129.44L93.8 126.68L90.78 122.9L87.52 118.38L84.5 112.59L82.24 105.3L80.73 100.77L78.97 93.23L78.21 88.2L77.96 85.18V73.87L78.71 68.08L79.97 62.3L82.49 53.5L84.75 46.96L86.76 42.94L88.77 39.42L91.04 35.9L93.04 32.88L95.31 29.86L102.35 22.82L105.12 20.56L106.38 19.3L108.64 17.79L113.67 14.52L117.69 12.01L121.72 9.99001L125.24 8.49001L133.28 5.97001L140.32 3.96001L149.38 2.46001L155.41 1.95001H155.42Z" />
  <path fill="black" d="M149.64 10.5H162.46L170.26 11.25L174.28 12.01L175.04 12.51L171.52 13.51L170.01 14.52L168.5 16.28L168 17.79L167.74 19.8L168.24 20.8L169.25 21.31L169.75 28.61L177.05 29.61L179.81 31.37L181.83 33.38L183.59 36.65V37.91L182.08 38.41L178.81 38.16L174.53 37.16L172.02 36.15L170.01 34.64L166.74 31.37L166.24 30.37L167.49 29.11L167.99 28.11L168.25 23.07H167.75L167.25 24.33L166.49 25.59L164.22 27.35L162.22 29.61L159.7 30.11L158.44 28.35L157.94 27.6L155.92 27V26.09L157.68 24.58L160.45 22.57L161.71 21.31L162.21 20.31V18.04L161.46 16.03L160.46 14.77L158.44 13.52L155.67 13.02L152.66 12.76H149.39L144.36 13.26L140.33 14.52L138.33 15.78L136.31 19.05L136.56 20.05L136.81 23.32L137.81 24.83L140.08 25.83L142.09 26.59L141.09 27.35L139.58 27.6L139.08 28.85L136.56 33.13L135.31 34.39H127.01L126.76 34.14V31.62L127.51 28.1V25.84L127.26 24.84L126.26 25.08L125.5 26.34L124.74 30.36L123.74 32.63L121.98 34.63L120.47 35.9L117.7 37.66L115.19 39.42H113.43L111.16 38.41L109.16 37.66L109.4 35.9L111.92 32.63L114.18 30.11L118.71 27.09L122.48 25.33L125.25 24.33L126.5 23.57V22.57L124.74 22.32L121.22 23.07L117.2 24.83L113.68 27.6L109.66 30.87L107.89 33.38L107.14 35.39V37.4L108.14 40.17L109.66 40.93L111.92 41.43L114.18 41.18L115.69 40.93L117.2 42.18L116.7 43.18L115.44 44.19L114.94 46.96L112.92 49.98L110.92 51.48L105.88 56.01H105.38L104.88 57.01L104.12 57.27V50.23L103.12 48.22L100.6 46.46L98.3398 46.71L96.0798 48.21L93.8098 50.73L92.3098 53.25L90.2898 58.02L89.7898 59.53V65.57L90.5398 68.08L92.2998 70.1L93.3098 69.6L94.0598 68.59L93.0598 66.57L92.2998 64.06V59.79L93.8098 54.76L95.5698 51.49L97.8398 49.47L99.3398 48.72H100.6L101.6 49.98L101.86 50.73V53.75L101.36 58.02L100.1 60.54L98.5998 63.05L97.8398 65.57L96.5798 67.07L94.8198 68.59L94.5698 69.84L94.8198 70.34L96.3198 69.84L98.8398 68.08L99.8398 67.33H100.35L100.6 68.33L99.8498 69.34L100.1 70.34L101.1 71.35L101.6 72.86V74.87L102.62 78L102.5 82.5V87.5L101.6 91.5L100.6 94.49L100.35 97.49L98.8398 96.24L99.0998 89.71L99.8498 83.42L100.35 80.4V78.4L98.8398 75.62L96.5798 73.5L94.3198 72.35L93.0598 72.6L91.0498 74.36L89.2898 76.88L88.0298 79.38L87.2798 82.41V89.2L88.0298 92.72L89.7898 96.24L91.2898 96.99L93.0598 96.74L94.5598 95.74H96.5798L98.8398 96.24L100.35 97.49L101.1 99.51L101.86 101.27L104.37 103.03L106.64 107.81L107.64 110.5L108.4 113.34L109 115L109.5 117.37V120.39L109.15 123.14L108.65 123.9H107.39L108.65 126.41L110.41 128.68L113.68 131.44L117.95 134.21L122.73 136.47L124.24 136.72L127.51 134.21L128.51 133.71L129.77 133.96L130.02 134.46L129.27 136.72V138.48L130.27 139.74L134.3 142L136.81 142.5H140.33L143.85 142L146.87 140.75L148.13 139.49L148.38 136.98L148.88 135.72H151.15L152.65 136.72L153.41 136.97H157.18L159.95 135.97L163.47 133.96L165.23 132.2L166.99 129.43L167.74 127.93L168.5 127.17L170.76 126.41L173.28 124.15L175.28 121.38L176.54 118.11L176.29 115.85L175.54 114.59L175.79 112.83L177.05 108.56V103.28L176.29 99.76L174.79 95.23L172.77 91.46L169.25 85.68L166.74 82.91L160.2 79.39L157.43 77.89L153.16 76.87L149.39 76.37L145.61 76.12L141.34 76.37L141.59 75.62L144.61 74.86L149.39 74.36L154.67 74.61L158.44 75.37L162.21 76.87L167.49 79.39L171.77 82.66L174.28 84.92L176.29 86.93L178.81 90.2L180.82 93.72L182.08 98.5L182.58 101.77L182.83 107.55L182.58 112.83L180.82 118.87L179.82 121.89L178.31 124.65L175.54 128.68L173.28 131.44L170.76 133.96L168.75 135.72L165.48 137.98L159.7 141L155.67 142.5L147.37 144.77L143.6 145.52L140.84 145.78H136.31L128.51 144.77L125.25 143.77L120.72 141.75L117.2 139.75L112.17 136.22L108.9 133.71L106.39 131.44L103.37 128.42L101.1 125.66L97.8398 122.39L95.0698 118.37L94.0698 115.85L93.0598 114.35L91.0498 111.07L89.2898 107.05L87.7798 102.27L86.7798 98.75L85.2598 89.7L84.7598 85.42V78.38L86.0198 66.82L87.0198 61.54L89.2898 55.75L91.2898 50.47L93.0598 46.7L95.0698 42.42L97.3298 39.15L100.1 35.89L102.36 33.12L107.89 27.59L109.91 25.83L113.18 23.31L116.45 21.05L119.97 19.04L123.74 17.78L128.77 15.77L139.83 12L144.11 11L149.64 10.49V10.5ZM93.8098 101.03L93.3098 101.53L92.8098 104.04V107.56L93.8098 111.59L95.8198 115.61L97.3298 118.12L99.0898 120.39L100.85 121.89L103.12 121.64L105.38 119.88L107.39 117.37L107.64 114.86L106.14 109.58L104.12 105.05L102.62 103.29L100.6 102.03L99.3498 101.28H98.0898L97.0898 102.28L99.0898 103.29L101.86 105.05L104.12 109L106 114L105.12 116.11L104.37 116.87L102.87 117.62H100.6L99.0998 116.37L96.5798 113.34L94.8198 109L94.5598 105.5L95.5798 103.54L95.8298 102.28L94.8198 101.03H93.8198H93.8098ZM228.35 55.76H231.11L233.88 56.52L235.89 57.77L238.66 61.8L240.42 65.32L241.67 68.84L242.17 70.84L242.43 73.11V78.65L241.67 81.16L240.17 82.92L237.9 83.42L235.64 82.67L233.12 80.4L231.12 77.9L228.6 73.87L227.34 70.85L226.84 67.83L226.59 65.07V58.52L227.34 56.51L228.34 55.75L228.35 55.76Z" />
  <path fill="black" d="M225.59 38.92L226.84 40.17L230.11 44.7L232.37 47.97L234.38 50.73L236.14 53.75L235.89 54.25L232.87 53.5H230.61L225.58 54.5L225.08 55.76L224.32 57.52L224.07 58.78V64.81L225.07 69.84L225.58 72.11L224.58 70.85L223.57 68.59L222.57 65.82L220.55 63.31L218.54 61.29L217.04 60.54L216.28 59.79L215.27 60.79H211.5L210.24 60.29V58.28L211.24 57.02L211.75 55.51V52.74L211 49.22L210.5 47.72V46.71L211.5 47.21L213.51 48.47L217.28 49.47H220.8L222.81 48.47L224.32 46.46L225.32 43.44L225.58 38.91L225.59 38.92ZM187.36 16.28L189.37 16.53L194.65 18.04L200.43 20.05L203.45 21.56L206.72 23.83L207.22 24.58L204.21 25.84L202.45 26.84L201.95 29.11V35.39L202.19 37.4L201.44 37.66L199.18 36.9L197.67 36.65H194.65L192.89 37.15L191.13 39.67H189.12L187.36 38.67L186.86 37.4L186.6 35.4L183.59 31.12L183.33 29.86L188.36 29.61L190.37 29.11L191.63 28.11L192.89 26.09L193.39 23.83L191.63 19.8L190.38 18.3L187.61 16.78L187.36 16.28Z" />
  <path fill="black" d="M206.97 26.84L208.73 27.09L212.76 29.11L215.52 31.37L218.79 34.64L221.31 37.91L223.06 40.17V43.19L222.06 46.21L221.06 46.96H217.79L213.51 45.46L211.5 43.94L208.73 41.18L206.47 39.42L205.21 38.16L204.21 35.64L203.96 34.39V29.86L204.96 28.36L206.97 26.84ZM214.5 62.5L216.78 63.56L218.79 65.56L220.8 68.84L222.81 72.86L223.57 75.38V82.67L223.07 85.69L221.81 86.94L219.55 87.44L217.53 86.94L215.53 84.68L213.26 80.91L211.75 74.11L211.5 72.11V67.83L212.5 63.31L214.5 62.5ZM174.53 15.02H177.8L180.82 15.78L185.1 17.79L188.36 20.3L190.63 23.07L191.38 24.58V25.84L190.12 26.84L187.61 27.6L183.59 28.1H182.08L177 25.84L172 23.5L169.75 20.56L170.01 18.54L171.26 16.54L172.77 15.53L174.53 15.03V15.02ZM195.15 39.16H198.42L201.44 39.92L203.45 42.69L205.71 44.95L207.98 48.47L208.73 50.98L208.98 55.51L207.98 57.02L204.21 55.76L202.19 54.26L197.42 49.48L195.91 46.96L194.65 44.19L193.9 41.43V39.67L195.15 39.17V39.16ZM148.39 15.52H154.16L157.94 16.53L159.44 17.79L160.2 20.31L157.68 21.81L153.16 23.57L150.9 24.07H143.85L139.33 23.07L138.57 22.32L138.32 21.32L139.32 19.3L141.09 17.79L144.11 16.29L148.38 15.53L148.39 15.52ZM142.35 29.36L148.5 28.5L155.17 29.36L156.93 30.11L157.43 31.11L157.69 33.88L155.17 35.14L150.14 36.4H146.87L142.35 35.14L140.84 34.14L140.34 33.38L140.08 32.12L142.35 29.36ZM94.82 75.12L95.82 75.62L97.5 76.5L98 83.5V94L94.82 92.5L93 94L90.79 92.5L89.5 88L90.04 82.42L90.79 79.65L92 77.5L93.31 76.13L94.81 75.13L94.82 75.12ZM110 56L112.42 56.77L112.17 58.53L110.67 62.55L108.9 66.32L107.14 69.09L105.38 70.85L104.38 70.6L102.87 70L102.37 68.59L102.87 67.33L104.37 62.8L105.38 60.29L106.5 58.53L108 56.77L110 56ZM126 37.66L127.5 37.15H129.52L131 37.66L131.78 38.66L130.5 40.42L129.02 41.68L126 44.7L122.98 46.46L119.21 47.96L118.21 47.46L118.71 44.45L119.71 42.18L121.47 40.42L124.24 38.66L126 37.66ZM111.5 124.16L113 123.5L114.93 124.16L117.95 125.66L120.72 127.43L123.49 129.69L125.75 131.96L126 133.46L124.24 134.47L121 134L117 131.5L112 127.43L111.5 124.16ZM135.05 134.47H142.09L146 136L145.87 139.5L142.09 141H138L134.5 140.5L132.79 139L131.79 137.74L132.04 135.98L133.04 134.72L135.05 134.47ZM165 128.43H166.49L164 132.5L160.5 134.72L158 135.5L155 135.97L153.66 134.72L154.42 133.46L156.68 130.95L159.7 128.94L162.5 128.43H165ZM174.29 115.86L175 117.62L174.28 121.5L172 124L169.75 125L169 124L169.5 121L171.5 118.5L173 117L174.28 115.86H174.29Z" />
</g>
</svg>