<svg xmlns="http://www.w3.org/2000/svg" fill="none" viewBox="124.7124387947269 39.382000000000005 266.713747645951 415.15999999999997" style="max-height: 500px" width="266.713747645951" height="415.15999999999997">
<path fill="black" d="M350.291 111.487L350.793 111.738L352.805 116.768L354.565 119.785L356.829 121.797L360.852 124.563L361.858 124.814H364.121L367.139 123.557L368.647 121.294L369.402 119.282V113.247L369.905 113.499L372.419 119.785L373.425 123.054L375.94 134.622L377.197 142.166L377.449 145.435V159.014L376.946 165.803L375.688 174.102L374.18 180.891L371.917 189.189L369.15 198.242L366.636 204.277L363.618 210.312L360.601 215.342L358.589 219.365L356.829 222.383L354.062 226.406L351.548 229.424L348.279 234.453L345.764 237.722L342.747 241.243L339.729 245.015L337.466 247.781L335.203 250.295L332.939 253.062L330.173 255.828L328.413 257.839L326.15 260.354L323.887 263.12L320.618 266.389L318.857 268.401L316.594 270.413L314.583 272.927L311.313 276.448L309.302 278.208L306.033 281.477L303.77 284.243L301.003 287.261L296.98 291.033L295.22 292.793L292.957 295.559L288.682 299.834L286.67 301.594L284.658 303.606L281.892 307.126L279.629 309.39L278.623 310.647L276.611 312.407L274.097 314.922L272.085 317.688L264.541 325.232L263.032 327.244L261.272 329.758L259.512 331.77L257.5 333.53L254.985 336.296L252.219 340.068L250.962 342.08L248.447 344.846L245.681 348.367L243.167 351.887L241.406 354.15L240.652 355.659L237.886 359.934L235.623 363.203L234.365 364.712L230.593 372.004L229.084 375.022L226.57 379.8L223.049 386.589L220.283 393.882L218.02 402.432L216.008 409.473L213.242 421.543L212.236 428.333L211.733 434.368L211.482 439.397V453.73L211.733 462.783V470.076L209.722 470.83L202.178 472.087L191.365 473.093L187.341 473.345L178.037 473.596L171.75 473.848V473.345L174.768 472.339L177.283 470.076L179.797 467.561L182.312 463.538L184.324 459.263L185.33 456.497L186.335 450.713L186.587 445.684L186.084 440.403L185.33 437.385L183.821 433.613L181.809 430.093L179.546 427.578L176.025 425.315L172.505 424.309H168.984L166.218 425.315L163.452 427.075L162.195 428.333L159.68 431.099L157.417 435.122L155.908 438.391L154.902 442.666L154.651 444.426V452.976L155.154 458.76L156.16 463.286L158.171 467.31L159.177 468.567L164.961 472.59L166.721 473.345V473.596L164.207 473.345L159.68 472.59L154.399 471.836L146.855 470.076L141.826 468.818L137.551 467.058L135.54 465.549L134.282 464.041L134.785 463.789L136.042 464.041H137.803L141.826 462.28L144.089 460.52L145.85 458.508L146.855 457.754H147.358L147.861 456.748L149.119 453.73L151.13 448.198L152.136 444.426L152.388 443.169V436.128L151.633 429.59L150.125 425.063L148.364 421.04L146.101 418.022L144.341 416.514L141.575 415.759L136.042 415.256L135.037 413.748L135.288 411.987L136.042 410.479L136.797 409.724L138.306 409.976L143.335 412.49H145.85L150.627 410.479L153.142 408.718L155.657 406.204L157.668 404.695L160.686 399.414L163.201 393.882L164.207 389.607L164.458 387.092V381.56L163.955 377.788L162.446 374.016L161.44 373.513L158.926 372.004L155.657 370.244L154.399 369.741L155.154 367.478L155.657 366.975L158.674 367.478L162.698 367.981L165.967 367.478L169.236 365.969L171.75 364.46L173.259 363.455L174.517 362.7L177.031 360.186L179.797 356.414L182.312 352.39L183.821 349.373L184.575 347.109L184.827 343.589L184.072 338.56L182.815 335.542L181.558 333.279L181.809 332.021L183.569 330.261L186.084 328.752L188.096 329.004L190.61 329.255H195.388L201.423 325.986L204.189 324.226L207.207 321.711L208.464 320.706L211.23 316.682L214.5 312.659L216.26 309.893L217.266 305.618V304.109L215.757 299.834L216.008 298.074L217.769 296.565L219.78 294.805L222.798 291.787L224.307 292.039L227.324 293.044L229.336 293.799H232.856L236.88 293.044L240.149 291.787L242.915 290.027L245.933 288.015L248.447 286.003L250.71 283.74L252.219 280.974L253.728 278.459L254.231 276.196V272.173L252.974 269.658L252.219 268.652L252.471 267.395L253.477 266.138L256.997 263.372L258.506 262.366L260.769 262.114L265.044 263.623L267.307 262.869L272.336 261.36L276.611 258.845L280.132 256.833L282.395 255.073L283.149 254.822L283.652 253.816L284.155 251.804L285.916 248.787L287.424 246.272L288.179 244.26V242.5L286.67 239.734L286.921 238.477L289.185 235.962L291.448 234.202L293.208 233.699H297.231L299.243 234.202H301.506L305.53 231.938L307.29 230.681L308.799 229.927L312.319 227.412L313.577 226.406H314.08L314.583 225.149H315.085L314.583 226.406L313.074 229.675L312.822 231.184V235.71L313.325 237.219L314.08 238.728L314.583 240.488L317.097 241.746L318.103 242.751L318.857 243.003H323.384L326.401 242.249L329.922 239.734L333.694 236.968L334.951 235.71L336.963 233.447L338.472 230.681L340.483 226.658L341.238 224.143L341.489 221.628L340.986 218.359L340.232 216.348L339.478 215.593V215.09L338.472 214.587L337.214 213.079L335.203 212.324H330.928L326.904 213.582L323.635 215.593L320.618 217.102L317.349 220.12L316.343 220.371L317.097 218.862L317.349 215.845V210.815L316.594 206.792L317.852 205.535L319.863 204.277L321.121 203.02H324.138L326.401 202.517L329.67 200.002L330.928 198.745H331.431L331.934 197.739L334.197 195.225L335.203 193.967L335.957 192.71H336.46L337.969 199.751L339.729 203.271L340.986 204.529L343.752 205.535H346.77L349.285 204.529L351.799 202.769L354.314 200.505L356.829 196.985L358.589 194.219L360.349 185.92L360.601 184.412V179.634L359.846 176.868L358.337 173.85L356.577 172.341L355.32 171.838H351.548L348.53 172.593L345.513 174.102L343.752 175.862L341.238 179.382L338.975 182.4H338.472L337.717 178.125L336.963 174.353L336.208 173.347L336.46 171.587L337.466 170.078L338.723 169.072L340.735 168.066L343.25 165.803L345.261 163.792L347.273 160.522L348.027 158.762L348.782 154.99H349.285L350.291 157.756L351.548 161.528L352.805 163.54L355.32 165.3L356.829 166.055L359.595 166.558L363.115 165.3L365.378 163.54L367.139 161.528L369.402 157.505L371.162 151.721L371.414 149.961V142.92L370.408 138.394L369.15 135.376L367.893 133.616L366.384 132.61L364.373 132.107H360.098L357.583 133.113L355.068 135.376L352.805 138.896L351.045 141.914L349.788 143.926H349.285L347.273 140.405L344.255 136.633L343.25 132.861L342.998 130.85L343.752 129.592L344.758 128.838L348.027 127.581L349.285 125.82L350.039 122.803L350.291 120.288V111.487ZM318.103 213.833L317.852 215.845L318.606 215.09L318.354 213.833H318.103ZM302.512 244.26L298.489 245.266L292.454 247.781L290.693 248.787L287.173 251.301L286.67 252.307L285.664 252.81L283.652 255.576L281.389 259.097L279.629 263.12L279.126 266.389V268.401L280.886 271.418L283.149 274.185L285.413 275.945H290.442L294.465 274.939L299.243 272.676L302.009 270.916L305.53 268.149L307.793 265.886L311.062 261.36L313.074 257.588L313.828 254.822L314.08 252.056L313.325 249.541L312.571 248.032L309.805 246.272L306.284 244.512L305.53 244.26H302.512ZM268.313 275.19L263.787 276.699L258.003 279.214L255.488 280.974L251.968 284.495L249.202 288.015L247.19 291.536L245.681 295.811V299.583L247.19 301.846L249.453 304.36L251.968 306.121L253.225 306.624L257.5 306.372L261.523 305.115L266.301 302.6L270.576 300.085L274.097 296.565L277.114 292.542L278.623 289.775L280.132 287.261L280.635 286.003V282.734L279.126 279.717L277.869 278.208L275.103 276.448L272.085 275.19H268.313ZM235.12 304.36L232.605 304.863L229.587 306.121L224.558 308.887L222.798 309.893L220.283 311.653L219.277 313.162L217.769 314.419L215.002 317.939L212.488 321.208L211.23 324.226L210.476 327.244V331.267L212.236 334.788L213.997 337.051L216.008 338.811L217.517 339.565H223.301L226.067 339.062L230.09 337.051L232.605 334.788L235.623 332.524L237.886 331.016L239.897 328.752L242.664 323.723L244.675 320.706L245.681 317.939L245.933 316.431V313.413L244.927 310.396L243.167 308.132L240.903 305.869L236.88 304.36H235.12ZM202.681 338.057L198.909 339.314L193.376 342.583L191.365 343.84L188.85 346.858L187.844 348.115L186.084 352.139L184.827 354.15L183.318 358.928L182.815 361.946V364.46L183.569 367.981L184.575 369.993L187.593 373.01L189.102 374.268L189.856 374.519H195.891L198.909 373.765L201.675 372.256L204.189 370.244L206.704 367.981L208.716 365.215L210.979 361.694L212.991 357.671L214.5 354.15L215.002 352.139V347.361L213.997 344.092L213.242 342.834L211.985 341.326L211.23 340.068L209.219 339.062L208.213 338.308L207.458 338.057H202.681ZM184.827 376.279L180.552 377.285L177.534 378.794L174.265 381.56L171.75 384.075L169.739 385.835L167.476 388.853L166.218 391.367L164.207 397.402L163.955 399.163V407.209L164.961 410.981L166.218 414.753L167.727 416.514L170.493 418.274L173.511 419.28H177.534L181.055 418.274L184.827 416.262L186.838 415.256L188.599 413.245L191.113 410.479L193.376 406.958L195.137 404.192L196.897 399.666L197.651 396.899L197.903 395.139V388.853L196.897 384.829L194.634 381.057L192.874 378.794L190.107 376.782L188.85 376.279H184.827Z"/>
<path fill="black" d="M280.132 41.3281H291.448L298.237 41.8311L303.77 42.5854L311.062 44.3457L319.36 47.1118L322.629 47.8662L327.407 49.8779L332.185 52.3926L335.706 54.1528L338.723 56.1646L344.255 59.1821L347.776 61.6968L349.285 63.457L352.051 65.7202L354.314 67.7319L357.332 69.9951L359.092 72.0068L361.606 75.2759L363.87 77.7905L365.63 79.8022L368.647 84.0771L371.414 89.1064L373.677 92.627L377.449 99.668L379.46 103.44L383.484 115.259L385.747 122.803L387.759 132.358L388.513 138.142L389.016 144.68L389.268 149.709V159.517L388.765 168.066L387.759 175.862L386.25 184.16L384.238 192.71L381.221 202.517L379.712 207.798L377.952 212.576L374.934 218.862L371.162 226.406L370.156 228.167L368.145 232.19L365.63 236.716L363.87 238.979L361.355 243.003L358.086 248.032L355.571 251.804L352.302 256.331L351.296 257.839L350.039 259.097L348.53 261.36L346.77 263.875L344.507 266.389L342.747 268.401L340.735 270.161H340.232L339.729 271.167L337.969 273.43L335.957 275.945L333.442 278.711L331.431 280.22L329.67 282.231H329.167L328.665 283.237L327.407 284.746L325.647 287.009L323.635 289.272L321.624 290.781L319.863 292.542L318.103 294.553L317.097 295.811L315.337 298.325L313.074 300.84L311.816 302.097L309.302 304.863L305.781 309.39L304.272 311.401L301.506 314.167L298.74 317.688L295.974 320.957L294.214 323.472L292.202 326.238L288.933 330.764L287.676 332.021L286.67 333.279H286.167L285.664 334.536L284.407 336.296L282.646 339.817L280.635 342.583L279.126 344.595L276.36 348.87L273.594 353.396L270.828 358.425L267.81 363.203L265.798 366.472L263.032 371.753L261.775 374.771L254.985 388.35L252.471 394.133L250.459 400.168L247.693 407.712L245.178 415.759L243.669 422.297L242.161 430.093L241.406 436.882V458.005L239.395 460.269L235.623 462.532L229.839 465.549L226.318 467.058L221.541 468.567L216.008 469.573H214.5L213.997 468.064L213.494 454.233V441.409L213.997 432.104L214.751 426.069L216.26 417.771L219.277 405.198L220.283 400.671L222.043 395.391L226.067 386.086L228.582 381.309L231.096 375.273L233.862 370.747L237.131 365.215L239.897 361.443L242.412 356.665L244.675 353.647L246.687 351.384L249.705 347.361L252.219 343.589L254.985 340.571L257.249 337.805L260.015 334.536L263.032 331.016L265.295 328.25L267.056 326.489L268.816 324.478L271.833 321.208L273.091 319.951L275.857 316.934L279.377 312.91H279.88L280.132 312.156L282.144 310.396L284.407 307.881L286.67 305.115L289.939 301.846L293.711 298.325L295.471 296.313L297.734 293.799L301.003 290.53L303.015 288.77L303.518 288.015H304.021L304.524 287.009L306.536 284.998L308.799 282.231L313.577 277.454H314.08L314.583 276.448L317.349 273.43L319.109 271.418L321.372 269.155L323.384 267.395L326.15 264.377L328.162 261.863L330.928 258.845L334.448 255.325L337.214 251.804L339.226 249.038L342.998 245.266L345.764 241.746L348.279 238.477L351.799 233.699L355.32 228.669L356.829 226.658L358.589 224.143L360.601 220.12L363.367 215.593L365.63 211.821L368.396 206.038L369.402 203.774L370.408 200.002L373.425 191.956L376.443 181.394L378.203 173.599L379.209 166.306L379.712 160.271V147.698L378.958 139.399L377.952 132.358L376.443 124.814L374.934 119.282L371.917 110.229L369.15 102.937L366.133 96.6504L362.612 90.6152L360.098 87.3462L357.834 83.3228L355.571 80.8081V80.3052L354.565 79.8022L351.548 77.0361L348.782 73.7671L347.273 71.5039L345.261 69.4922L342.747 67.9834L339.478 65.4688L335.957 62.7026L331.934 60.188L326.15 57.4219L317.6 53.9014L310.308 51.3867L303.015 49.375L298.237 48.3691L291.196 47.6147H273.845L267.056 48.3691L258.003 50.6323L251.968 52.8955L240.903 58.1763L237.131 60.4395L232.856 63.457L229.839 66.2231L227.827 68.2349L226.067 69.4922L225.815 69.9951H225.312L224.81 71.001L222.798 73.2642L220.535 76.5332L219.026 79.2993L216.008 84.5801L214.248 88.1006L212.488 91.8726L210.728 97.6562L209.219 101.68L207.71 114.504V125.317L208.464 132.107L209.219 139.651L210.476 144.429L212.236 148.452L213.745 151.973L218.271 158.762L220.786 162.786L222.798 165.3L225.061 167.815L230.593 173.347L232.605 175.107L236.88 178.628L241.658 182.148L244.675 183.657L250.71 185.417L253.728 186.423L257.249 187.178L259.26 187.429H267.559L273.845 186.172L282.898 183.657L288.179 181.394L291.699 179.382L293.962 177.622L295.471 176.113H295.974V175.61L298.74 173.347L300.5 171.838L302.764 169.072L304.775 165.803L306.787 161.025L308.044 155.745L308.547 152.727L309.05 153.481L309.302 154.236V158.762L308.044 162.031L304.775 169.072L302.261 172.341L297.483 177.119L295.471 178.879L292.957 181.394L289.436 183.657L283.401 186.172L278.372 188.184L274.097 189.441L268.816 190.195H261.523L255.991 189.441L250.459 187.932L244.172 185.669L238.892 183.406L233.359 179.885L230.09 177.371L227.324 174.856L224.558 172.593L220.786 168.821L218.523 166.055L215.505 162.283L212.236 157.756L209.219 151.973L206.956 144.68L205.447 140.154L203.687 132.61L202.932 127.581L202.681 124.563V113.247L203.435 107.463L204.692 101.68L207.207 92.8784L209.47 86.3403L211.482 82.3169L213.494 78.7964L215.757 75.2759L217.769 72.2583L220.032 69.2407L227.073 62.1997L229.839 59.9365L231.096 58.6792L233.359 57.1704L238.389 53.9014L242.412 51.3867L246.436 49.375L249.956 47.8662L258.003 45.3516L265.044 43.3398L274.097 41.8311L280.132 41.3281Z"/>
<path fill="black" d="M274.348 49.8779H287.173L294.968 50.6323L298.992 51.3867L299.746 51.8896L296.226 52.8955L294.717 53.9014L293.208 55.6616L292.705 57.1704L292.454 59.1821L292.957 60.188L293.962 60.6909L294.465 67.9834L301.758 68.9893L304.524 70.7495L306.536 72.7612L308.296 76.0303V77.2876L306.787 77.7905L303.518 77.5391L299.243 76.5332L296.729 75.5273L294.717 74.0186L291.448 70.7495L290.945 69.7437L292.202 68.4863L292.705 67.4805L292.957 62.4512H292.454L291.951 63.7085L291.196 64.9658L288.933 66.7261L286.921 68.9893L284.407 69.4922L283.149 67.7319V66.7261L282.646 66.9775L280.383 66.7261L280.635 65.4688L282.395 63.96L285.161 61.9482L286.418 60.6909L286.921 59.6851V57.4219L286.167 55.4102L285.161 54.1528L283.149 52.8955L280.383 52.3926L277.366 52.1411H274.097L269.067 52.644L265.044 53.9014L263.032 55.1587L261.021 58.4277L261.272 59.4336L261.523 62.7026L262.529 64.2114L264.792 65.2173L266.804 65.9717L265.798 66.7261L264.29 66.9775L263.787 68.2349L261.272 72.5098L260.015 73.7671H251.716L251.465 73.5156V71.001L252.219 67.4805V65.2173L251.968 64.2114L250.962 64.4629L250.208 65.7202L249.453 69.7437L248.447 72.0068L246.687 74.0186L245.178 75.2759L242.412 77.0361L239.897 78.7964H238.137L235.874 77.7905L233.862 77.0361L234.114 75.2759L236.628 72.0068L238.892 69.4922L243.418 66.4746L247.19 64.7144L249.956 63.7085L251.213 62.9541V61.9482L249.453 61.6968L245.933 62.4512L241.909 64.2114L238.389 66.9775L234.365 70.2466L232.605 72.7612L231.851 74.7729V76.7847L232.856 79.5508L234.365 80.3052L236.628 80.8081L238.892 80.5566L240.4 80.3052L240.652 81.0596L241.909 81.5625L241.406 82.5684L240.149 83.5742L239.646 86.3403L237.634 89.3579L235.623 90.8667L230.593 95.3931H230.09L229.587 96.3989L228.833 96.6504V89.6094L227.827 87.5977L225.312 85.8374L223.049 86.0889L220.786 87.5977L218.523 90.1123L217.014 92.627L215.002 97.4048L214.5 98.9136V104.949L215.254 107.463L217.014 109.475L218.02 108.972L218.774 107.966L217.769 105.955L217.014 103.44V99.165L218.523 94.1357L220.283 90.8667L222.546 88.855L224.055 88.1006H225.312L226.318 89.3579L226.57 90.1123V93.1299L226.067 97.4048L224.81 99.9194L223.301 102.434L222.546 104.949L221.289 106.458L219.529 107.966L219.277 109.224L219.529 109.727L221.038 109.224L223.552 107.463L224.558 106.709H225.061L225.312 107.715L224.558 108.721L224.81 109.727L225.815 110.732L226.318 112.241V114.253L226.067 117.522L228.33 122.3V127.078L227.324 131.101L225.312 133.867L224.307 134.622H223.804V129.089L224.558 122.803L225.061 119.785V117.773L223.301 116.013L220.283 114.001L219.026 112.241V111.738L217.769 111.99L215.757 113.75L213.997 116.265L212.739 118.779L211.985 121.797V128.586L212.739 132.107L214.5 135.627L216.008 136.382L217.769 136.13L219.277 135.125H221.289L223.552 135.627L225.061 136.885L225.815 138.896L226.57 140.657L229.084 142.417L231.348 147.195L232.856 149.709L233.108 152.727L232.605 154.236V154.739L234.868 154.99L232.354 146.943L230.593 143.674L229.336 142.668L229.587 141.914L231.096 142.166L232.856 143.674L234.617 147.195L235.623 150.715V153.733L234.868 156.75L235.12 160.02L233.862 162.534L233.359 163.289H232.102L233.359 165.803L235.12 168.066L238.389 170.833L242.664 173.599L247.441 175.862L248.95 176.113L252.219 173.599L253.225 173.096L254.482 173.347L254.734 173.85L253.979 176.113V177.874L254.985 179.131L259.009 181.394L261.523 181.897H265.044L268.564 181.394L271.582 180.137L272.839 178.879L273.091 176.365L273.594 175.107H275.857L277.366 176.113L278.12 176.365H281.892L284.658 175.359L288.179 173.347L289.939 171.587L291.699 168.821L292.454 167.312L293.208 166.558L295.471 165.803L297.986 163.54L299.998 160.774L301.255 157.505L301.003 155.242L300.249 153.984L300.5 152.224L301.758 147.949V142.668L301.003 139.148L299.495 134.622L297.483 130.85L293.962 125.066L291.448 122.3L284.91 118.779L282.144 117.271L277.869 116.265L274.097 115.762L270.325 115.51L266.05 115.762L266.301 115.007L269.319 114.253L274.097 113.75L279.377 114.001L283.149 114.756L286.921 116.265L292.202 118.779L296.477 122.048L298.992 124.312L301.003 126.323L303.518 129.592L305.53 133.113L306.787 137.891L307.29 141.16L307.542 146.943L307.29 152.224L305.53 158.259L304.524 161.277L303.015 164.043L300.249 168.066L297.986 170.833L295.471 173.347L293.459 175.107L290.19 177.371L284.407 180.388L280.383 181.897L272.085 184.16L268.313 184.915L265.547 185.166H261.021L253.225 184.16L249.956 183.154L245.43 181.143L241.909 179.131L236.88 175.61L233.611 173.096L231.096 170.833L228.079 167.815L225.815 165.049L222.546 161.78L219.78 157.756L218.774 155.242L217.769 153.733L215.757 150.464L213.997 146.44L212.488 141.663L211.482 138.142L209.973 129.089L209.47 124.814V117.773L210.728 106.206L211.733 100.925L213.997 95.1416L216.008 89.8608L217.769 86.0889L219.78 81.814L222.043 78.5449L224.81 75.2759L227.073 72.5098L232.605 66.9775L234.617 65.2173L237.886 62.7026L241.155 60.4395L244.675 58.4277L248.447 57.1704L253.477 55.1587L264.541 51.3867L268.816 50.3809L274.348 49.8779ZM254.231 59.6851V60.4395H254.985L254.734 59.6851H254.231ZM259.26 64.4629L258.254 66.9775V68.9893L259.009 68.7378L259.26 66.4746L259.763 64.4629H259.26ZM283.652 64.9658L283.149 66.7261L283.904 65.9717L284.155 64.9658H283.652ZM218.523 140.405L218.02 140.908L217.517 143.423V146.943L218.523 150.967L220.535 154.99L222.043 157.505L223.804 159.768L225.564 161.277L227.827 161.025L230.09 159.265L232.102 156.75L232.354 154.236L230.845 148.955L228.833 144.429L227.324 142.668L225.312 141.411L224.055 140.657H222.798L221.792 141.663V142.92L223.804 144.68L225.815 148.704L228.33 154.236L229.839 155.493L229.084 156.248L227.576 157.002H225.312L223.804 155.745L222.043 152.727L220.786 148.704L220.283 146.44V142.92L220.535 141.663L219.529 140.405H218.523Z"/>
<path fill="black" d="M168.733 426.824H173.762L176.025 427.578L178.289 429.338L180.3 432.104L182.312 436.128L183.318 439.146L183.821 442.163L184.072 445.181V448.45L183.569 452.976L182.563 457.251L180.803 461.526L178.54 465.298L176.277 468.315L172.756 470.076L170.996 470.579H167.476L164.207 469.573L161.44 467.561L159.68 465.298L158.423 463.286L157.166 459.514L156.663 457.251L156.411 454.988V447.695L156.914 443.923L158.171 439.648L161.189 433.362L163.704 430.093L165.715 428.081L167.224 427.075L168.733 426.824Z"/>
<path fill="black" d="M137.551 417.268H139.814L142.329 418.022L144.341 419.531L146.855 423.555L148.616 428.333L149.37 432.356L149.873 437.385V442.415L149.37 445.935L147.61 450.964L145.85 454.988L144.341 457.502L142.329 459.263L140.066 460.52L137.803 461.274H134.282L132.522 460.269L129.504 457.502L128.247 455.491L126.738 451.719L125.481 447.444L124.978 444.678V438.14L125.984 432.607L127.493 428.081L129.001 425.063L131.265 421.543L134.785 418.022L137.551 417.268Z"/>
<path fill="black" d="M184.575 379.045H187.09L190.107 380.303L192.371 382.566L194.382 385.835L195.137 389.104L195.388 391.116V393.63L194.382 398.911L192.622 403.689L191.113 406.204L187.844 410.479L186.838 411.987H186.335V412.49H185.833V412.993L183.318 414.753L181.306 415.759L177.283 416.514H174.014L171.248 416.011L168.984 414.502L167.476 412.49L166.218 409.221L165.967 407.712V400.42L166.973 395.894L169.236 391.116L171.499 387.344L173.511 385.081L175.522 383.32L177.786 381.309L182.061 379.548L184.575 379.045Z"/>
<path fill="black" d="M152.136 373.01H154.902L157.92 374.016L159.932 375.273L161.189 376.782L162.195 379.297L162.446 380.554V387.092L161.692 391.619L160.686 394.636L157.417 401.174L155.657 403.689L153.896 405.701L149.873 407.964L146.855 409.221L143.586 409.976L141.072 408.718L138.054 405.952L136.545 402.935L135.791 400.42L135.54 398.66V395.642L137.048 389.858L138.809 385.081L142.329 379.548L144.844 376.279L146.101 375.022L150.879 373.262L152.136 373.01Z"/>
<path fill="black" d="M205.195 340.571H206.956L208.716 341.577L209.973 342.834L211.23 344.343L212.236 347.361V352.642L211.23 356.162L209.219 360.437L207.961 362.952L206.704 364.209L204.189 366.975L200.92 369.49L197.148 371.501L194.634 372.256H191.868L189.353 371.501L187.593 370.244L186.335 368.232L185.581 365.718L185.33 362.449L185.833 359.18L187.844 353.145L189.604 349.875L191.365 347.109L193.879 344.595L196.646 342.834L200.166 341.326L205.195 340.571Z"/>
<path fill="black" d="M233.862 306.875H237.383L239.897 307.881L241.406 309.893L242.915 312.91L243.167 315.928L242.664 318.945L240.652 323.22L238.64 325.986L236.628 328.501L233.611 331.267L231.348 332.524H230.845L230.342 333.53L227.827 335.039L223.804 336.548L220.535 337.051L217.517 336.548L216.008 335.793L214.5 334.033L213.242 331.519L212.991 329.004L213.745 324.98L214.751 322.466L218.271 317.437L220.283 314.419L222.546 312.156L229.587 308.384L231.599 307.378L233.862 306.875Z"/>
<path fill="black" d="M176.277 335.291L178.54 335.542L180.552 336.799L181.809 338.56L182.815 341.829V344.846L181.558 348.87L179.294 353.145L176.528 357.168L174.517 359.683L172.253 361.946L169.739 363.706L164.709 365.718H161.189L159.177 364.712L157.668 363.455L156.914 361.946L156.663 360.437V356.917L157.417 353.647L159.68 348.87L161.692 345.852L163.452 343.589L165.715 341.326L166.973 339.565L170.242 337.051L172.505 336.045L176.277 335.291Z"/>
<path fill="black" d="M299.998 247.278H306.284L308.296 248.032L309.553 249.038L310.811 251.301L311.062 252.307V254.822L310.056 257.839L308.044 261.611L304.775 265.635L302.261 267.898L300.752 268.904L298.237 269.91L295.723 271.418L292.957 272.676L289.185 273.43L286.167 273.179L284.155 272.173L282.646 269.91L282.144 267.144L282.898 262.114L284.155 258.845L286.418 256.079L289.185 253.313L292.454 250.798L295.974 248.535L298.74 247.529L299.998 247.278Z"/>
<path fill="black" d="M268.564 277.957H272.336L274.851 279.214L276.611 280.723L277.617 282.734L277.869 283.74V286.255L275.857 289.524L273.342 293.547L271.582 295.811L269.822 297.571L266.301 299.834L264.038 301.091L262.278 302.097L259.26 303.354L257.249 303.857H252.219L250.208 302.6L248.95 300.84L248.699 299.834V296.062L249.705 292.039L251.465 288.77L254.482 285.5L257.5 282.483L261.523 279.968L264.29 278.962L268.564 277.957Z"/>
<path fill="black" d="M208.464 299.834L210.476 300.085L213.242 300.84L214.248 301.846L215.254 304.109V306.875L214.248 309.39L211.985 312.91L210.476 314.67L208.464 317.688L205.698 320.706L202.932 322.214L200.417 323.975L197.4 325.735L193.628 326.992L192.119 327.244H188.347L187.341 325.986L186.587 323.22V320.454L187.593 316.179L189.353 312.659L191.616 310.144L196.143 305.618L200.166 302.097L202.681 300.84L206.956 300.085L208.464 299.834Z"/>
<path fill="black" d="M331.682 214.587H334.197L336.208 215.342L337.466 216.348L338.723 219.617L338.975 220.623V223.389L338.472 225.4L337.214 228.418L333.945 233.196L331.431 235.71L328.916 237.471L325.647 239.482L322.881 240.237H320.869L316.846 239.231L315.588 237.722L315.337 236.968V232.693L316.091 227.412L316.846 224.897L319.36 221.628L323.384 217.605L327.407 215.593L330.425 214.839L331.682 214.587Z"/>
<path fill="black" d="M351.296 173.599H353.308L355.068 174.102L357.08 175.862L358.589 178.376V184.663L357.834 188.938L356.326 192.961L355.32 194.973L353.308 197.739L351.799 199.5L349.033 201.763L347.776 202.769L346.519 203.271H344.004L341.489 202.266L339.98 200.254L339.226 197.739L338.975 193.213L339.729 188.184L340.986 184.663L342.998 181.143L345.764 176.868L347.021 175.359L348.782 174.102L351.296 173.599Z"/>
<path fill="black" d="M360.601 133.616L363.367 133.867L366.384 135.376L368.396 137.639L369.402 140.908L369.653 143.423V146.943L369.15 151.47L367.893 155.745L365.881 159.517L364.121 161.78L362.361 163.289L360.852 163.792H356.829L355.32 163.037L354.062 161.528L352.805 158.511L352.051 155.242V149.709L352.805 145.183L355.068 139.902L356.577 137.136L358.589 134.622L360.601 133.616Z"/>
<path fill="black" d="M245.43 269.407H249.202L250.71 270.161L251.716 271.418L252.219 272.927V277.202L251.465 278.711L247.944 282.986L246.184 284.998L243.921 286.758L241.406 288.77L239.143 289.775L233.862 291.536L231.348 292.039L228.33 291.787L226.821 291.033L225.815 289.021V287.009L226.57 283.992L228.079 281.226L230.845 277.957L232.605 276.196L235.874 273.933L240.149 271.418L242.915 270.161L245.43 269.407Z"/>
<path fill="black" d="M278.623 238.728H282.395L284.155 239.734L285.161 240.991L285.664 241.997L285.413 245.015L284.155 248.032L282.395 251.05L280.383 253.564L277.366 256.079L275.354 257.588L270.325 259.851L266.301 260.857L262.278 261.108L260.266 259.6L259.009 258.091V255.828L260.266 252.307L263.032 248.032L269.57 243.003L273.594 240.488L278.623 238.728Z"/>
<path fill="black" d="M309.805 209.055H312.068L314.583 209.81L315.588 210.815L315.84 211.318V216.851L315.085 219.365L313.325 222.383L311.565 224.395L310.559 225.652L308.547 226.909L306.787 227.915L304.775 229.675L300.5 231.436L299.243 231.687H296.477L294.465 230.933L293.459 229.172L293.208 228.167V226.406L294.214 222.634L295.22 219.617L296.729 217.102L299.998 214.084L304.021 211.067L306.284 209.81L309.805 209.055Z"/>
<path fill="black" d="M353.057 95.1416H355.823L358.589 95.896L360.601 97.1533L363.367 101.177L365.127 104.697L366.384 108.218L366.887 110.229L367.139 112.493V118.025L366.384 120.54L364.875 122.3L362.612 122.803L360.349 122.048L357.834 119.785L355.823 117.271L353.308 113.247L352.051 110.229L351.548 107.212L351.296 104.446V97.9077L352.051 95.896L353.057 95.1416Z"/>
<path fill="black" d="M341.741 139.148H343.25L346.77 142.668L348.027 144.932L348.279 146.189L348.027 151.721L346.016 157.756L344.004 161.78L341.992 164.546L339.226 167.061L337.717 167.815L334.7 166.055L333.694 164.797L332.939 163.037L332.688 161.277V154.99L333.442 150.967L335.203 146.189L337.717 141.914L338.975 140.657L340.986 139.399L341.741 139.148Z"/>
<path fill="black" d="M331.431 174.856H333.442L335.203 175.359L335.706 176.616L335.957 178.125L336.208 182.148V185.166L334.7 190.447L332.939 193.213L330.676 195.728L328.916 197.739L325.898 200.757L323.384 201.26L321.372 200.757L319.863 198.997L319.36 197.739L319.109 196.23V194.219L319.863 190.447L321.372 185.92L323.132 182.903L325.396 179.382L328.162 176.113L330.173 175.107L331.431 174.856Z"/>
<path fill="black" d="M350.291 78.2935L351.548 79.5508L354.817 84.0771L357.08 87.3462L359.092 90.1123L360.852 93.1299L360.601 93.6328L357.583 92.8784H355.32L350.291 93.8843L349.788 95.1416L349.033 96.9019L348.782 98.1592V104.194L349.788 109.224L350.291 111.487L349.285 110.229L348.279 107.966L347.273 105.2L345.261 102.686L343.25 100.674L341.741 99.9194L340.986 99.165L339.98 100.171H336.208L334.951 99.668V97.6562L335.957 96.3989L336.46 94.8901V92.124L335.706 88.6035L335.203 87.0947V86.0889L336.208 86.5918L338.22 87.8491L341.992 88.855H345.513L347.524 87.8491L349.033 85.8374L350.039 82.8198L350.291 78.2935Z"/>
<path fill="black" d="M312.068 55.6616L314.08 55.9131L319.36 57.4219L325.144 59.4336L328.162 60.9424L331.431 63.2056L331.934 63.96L328.916 65.2173L327.156 66.2231L326.653 68.4863V74.7729L326.904 76.7847L326.15 77.0361L323.887 76.2817L322.378 76.0303H319.36L317.6 76.5332L315.84 79.0479H313.828L312.068 78.042L311.565 76.7847L311.313 74.7729L308.296 70.498L308.044 69.2407L313.074 68.9893L315.085 68.4863L316.343 67.4805L317.6 65.4688L318.103 63.2056L316.343 59.1821L315.085 57.6733L312.319 56.1646L312.068 55.6616Z"/>
<path fill="black" d="M331.682 66.2231L333.442 66.4746L337.466 68.4863L340.232 70.7495L343.501 74.0186L346.016 77.2876L346.77 78.2935V78.7964H347.273L347.776 79.5508V82.5684L346.77 85.5859L345.764 86.3403H342.495L338.22 84.8315L336.208 83.3228L333.442 80.5566L331.179 78.7964L329.922 77.5391L328.916 75.0244L328.665 73.7671V69.2407L329.67 67.7319L331.682 66.2231Z"/>
<path fill="black" d="M338.22 100.925L339.226 101.177L341.489 102.937L343.501 104.949L345.513 108.218L347.524 112.241L348.279 114.756V122.048L347.776 125.066L346.519 126.323L344.255 126.826L342.244 126.323L340.232 124.06L337.969 120.288L336.46 113.499L336.208 111.487V107.212L337.214 102.686L338.22 100.925Z"/>
<path fill="black" d="M299.243 54.4043H302.512L305.53 55.1587L309.805 57.1704L312.571 59.1821V59.6851H313.074L315.337 62.4512L316.091 63.96V65.2173L314.834 66.2231L312.319 66.9775L308.296 67.4805H306.787L304.272 64.9658L296.226 60.9424L294.465 59.9365L294.717 57.9248L295.974 55.9131L297.483 54.9072L299.243 54.4043ZM304.021 56.9189L304.524 57.4219H305.781L305.027 56.9189H304.021Z"/>
<path fill="black" d="M319.863 78.5449H323.132L326.15 79.2993L328.162 82.0654L330.425 84.3286L332.688 87.8491L333.442 90.3638L333.694 94.8901L333.945 96.9019L332.688 96.3989L328.916 95.1416L326.904 93.6328L322.126 88.855L320.618 86.3403L319.36 83.5742L318.606 80.8081V79.0479L319.863 78.5449Z"/>
<path fill="black" d="M273.091 54.9072H278.875L282.646 55.9131L284.155 57.1704L284.91 59.6851L282.395 61.1938L277.869 62.9541L275.605 63.457H268.564L264.038 62.4512L263.284 61.6968L263.032 60.6909L264.038 58.6792L265.798 57.1704L268.816 55.6616L273.091 54.9072Z"/>
<path fill="black" d="M265.044 68.7378H279.88L281.641 69.4922L282.144 70.498L283.401 69.9951H284.155L283.904 71.2524L282.395 73.2642L279.88 74.5215L274.851 75.7788H271.582L267.056 74.5215L265.547 73.5156L265.044 72.7612L264.792 71.5039V68.9893L265.044 68.7378Z"/>
<path fill="black" d="M219.529 114.504L220.535 115.007L220.786 115.762V126.072L219.78 132.61L219.529 132.861L217.517 132.61L215.254 131.855L214.751 131.101V121.797L215.505 119.031L217.014 116.516H217.517V116.013H218.02V115.51L219.529 114.504Z"/>
<path fill="black" d="M235.874 95.896L237.131 96.1475L236.88 97.9077L235.371 101.931L233.611 105.703L231.851 108.469L230.09 110.229L229.084 109.978L228.079 108.721L227.576 108.469V107.966H227.073L227.576 106.709L229.084 102.183L230.09 99.668L230.593 97.6562L231.348 96.9019V97.6562L233.611 96.9019L234.868 96.1475L235.874 95.896Z"/>
<path fill="black" d="M251.213 76.2817L252.219 76.5332L253.477 77.0361H256.746L256.494 78.042L254.734 80.0537H254.231L253.728 81.0596L250.71 84.0771L247.693 85.8374L243.921 87.3462L242.915 86.8433L243.418 83.8257L244.424 81.5625L246.184 79.8022L248.95 78.042L250.71 77.0361L251.213 76.2817Z"/>
<path fill="black" d="M233.862 163.289H235.623L237.131 164.043H237.886L238.137 163.54H239.646L242.664 165.049L245.43 166.809L248.196 169.072L250.459 171.335L250.71 172.844L248.95 173.85L246.436 173.096L242.412 170.581L237.131 166.558L233.862 163.792V163.289Z"/>
<path fill="black" d="M259.763 173.85H266.804L270.576 175.359L272.839 176.365L271.582 177.371L266.553 178.879L265.295 179.131H259.009L257.5 178.376L256.494 177.119L256.746 175.359L257.751 174.102L259.763 173.85Z"/>
<path fill="black" d="M290.693 167.563L291.196 167.815L288.179 169.827L284.658 172.593L282.144 173.599L279.629 174.102H278.372L279.126 172.844L281.389 170.33L284.407 168.318L289.939 167.815L290.693 167.563Z"/>
<path fill="black" d="M298.992 155.242L299.243 156.248L297.231 160.774L296.226 162.031L294.717 162.283L294.465 162.031V160.02L295.22 158.511L296.226 157.756L297.734 157.002L298.992 155.242Z"/>
<path fill="black" d="M294.465 163.037H294.717V164.546L293.711 165.552L294.214 163.289L294.465 163.037Z"/>
<path fill="black" d="M236.88 163.037L237.634 163.289V163.792L236.88 163.54V163.037Z"/>
<path fill="black" d="M289.185 68.7378H289.688V69.4922L288.933 69.2407L289.185 68.7378Z"/>
<path fill="black" d="M223.301 142.417H223.804L223.552 142.92L223.301 142.417Z"/>
</svg>